/* XPM */
static char *result[] = {
/* columns rows colors chars-per-pixel */
"50 50 122 2 ",
"   c #080711",
".  c #523F32",
"X  c #5E4838",
"o  c #6D5437",
"O  c #6F5438",
"+  c #71573A",
"@  c #75593B",
"#  c #7A5D3E",
"$  c #253F5F",
"%  c #34537B",
"&  c #5C5551",
"*  c #5F5852",
"=  c #7E5F40",
"-  c #664E55",
";  c #604E59",
":  c #7F6141",
">  c #6F665C",
",  c #535B68",
"<  c #4C637B",
"1  c #5F6A75",
"2  c #5C6A7B",
"3  c #696E7A",
"4  c #6B717C",
"5  c #7C7676",
"6  c #707278",
"7  c #975D47",
"8  c #965E49",
"9  c #846544",
"0  c #876945",
"q  c #8A6946",
"w  c #8D6C48",
"e  c #926E4A",
"r  c #94724C",
"t  c #99754E",
"y  c #846D54",
"u  c #967451",
"i  c #9C7650",
"p  c #9D7851",
"a  c #A36B4E",
"s  c #A47753",
"d  c #A47D53",
"f  c #A87F55",
"g  c #B07D58",
"h  c #866F62",
"j  c #807B77",
"k  c #A68056",
"l  c #AA8157",
"z  c #A78058",
"x  c #AD845A",
"c  c #B1855A",
"v  c #BD855D",
"b  c #B48A5D",
"n  c #BB8D5F",
"m  c #BE905F",
"M  c #9C836A",
"N  c #AE8A65",
"B  c #A48A6F",
"V  c #AA896B",
"C  c #BA8E60",
"Z  c #BE9162",
"A  c #B6936D",
"S  c #BD956B",
"D  c #BE9B75",
"F  c #C0875F",
"G  c #C08A5F",
"H  c #C18D61",
"J  c #C39564",
"K  c #C89766",
"L  c #C69867",
"P  c #C99966",
"I  c #C49668",
"U  c #C69969",
"Y  c #CB9C6A",
"T  c #D29F6D",
"R  c #D09B7A",
"E  c #D1A16E",
"W  c #C9A37C",
"Q  c #3A5B83",
"!  c #3F5F88",
"~  c #3C648D",
"^  c #4E6385",
"/  c #526486",
"(  c #446692",
")  c #496B96",
"_  c #4B6E9A",
"`  c #657285",
"'  c #5376A4",
"]  c #5579A7",
"[  c #567AA8",
"{  c #597DAA",
"}  c #988F86",
"|  c #8E9296",
" . c #909497",
".. c #929699",
"X. c #95999C",
"o. c #989C9F",
"O. c #B09B85",
"+. c #BFAB99",
"@. c #999DA1",
"#. c #9DA1A5",
"$. c #A0A6A9",
"%. c #AAAEB2",
"&. c #D49A82",
"*. c #D99C89",
"=. c #DD9E91",
"-. c #E69E9E",
";. c #C1A485",
":. c #CCA780",
">. c #CDAA84",
",. c #CEAD8B",
"<. c #D8A587",
"1. c #D0AE8C",
"2. c #D4B18D",
"3. c #D5B694",
"4. c #DBB894",
"5. c #D4B799",
"6. c #D6B99B",
"7. c #DABC9C",
"8. c #E99FA3",
"9. c #E9A1A6",
"0. c #F3BBB5",
"q. c None",
/* pixels */
"q.q.q.q.q.q.q.q.q.q.q.q.q.q.q.q.q.q.q.q.q.q.q.q.q.q.q.q.q.q.q.q.q.q.q.q.q.q.q.q.q.q.q.q.q.q.q.q.q.q.",
"q.q.q.q.q.q.q.q.q.q.q.q.q.q.q.q.q.q.q.q.q.q.q.q.q.q.q.q.q.q.q.q.q.q.q.q.q.q.q.q.q.q.q.q.q.q.q.q.q.q.",
"q.q.q.q.q.q.q.q.q.q.q.q.q.q.q.q.q.q.q.q.q.q.q.q.q.q.q.q.q.q.q.q.q.q.q.q.q.q.q.q.q.q.q.q.q.q.q.q.q.q.",
"q.q.q.q.q.q.q.q.q.q.q.q.q.q.q.q.q.q.q.q.q.q.q.q.q.q.q.q.q.q.q.q.q.q.q.q.q.q.q.q.q.q.q.q.q.q.q.q.q.q.",
"q.q.q.q.q.q.q.q.q.q.q.q.q.q.q.q.q.q.q.q.q.q.q.q.q.q.q.q.q.q.q.q.q.q.q.q.q.q.q.q.q.q.q.q.q.q.q.q.q.q.",
"q.q.q.q.q.q.q.q.q.q.q.q.q.q.q.q.q.q.q.q.q.q.q.q.q.q.q.q.q.q.q.q.q.q.q.q.q.q.q.q.q.q.q.q.q.q.q.q.q.q.",
"q.q.q.q.q.q.q.q.q.q.q.q.q.q.q.q.q.q.q.q.q.q.q.q.q.q.q.q.q.q.q.q.q.q.q.q.q.q.q.q.q.q.q.q.q.q.q.q.q.q.",
"q.q.q.q.q.q.q.q.q.q.q.q.q.q.q.q.q.q.q.q.q.q.q.q.q.q.q.q.q.q.q.q.q.q.E q.q.q.q.q.q.q.q.q.q.q.q.q.q.q.",
"q.q.q.q.q.q.q.q.@ + O q.q.q.q.q.q.q.q.q.q.q.q.q.q.T E q.q.q.q.q.q.q.J I P q.q.q.q.q.q.q.q.q.q.q.q.q.",
"q.q.q.q.q.q.q.P r O + q.q.q.q.q.q.q.q.q.q.q.q.q.q.R J J q.q.q.q.q.q.m J L L q.q.q.q.q.q.q.q.q.q.q.q.",
"q.q.q.q.q.q.J J J w q.q.q.q.q.q.q.q.q.q.q.q.q.q.q.9.=.I J q.q.q.q.q.E H I I K q.q.q.q.q.q.q.q.q.q.q.",
"q.q.q.q.q.@ # C Y q.q.q.q.q.q.q.q.q.q.q.q.q.q.q.q.8.9.-.K J q.q.q.q.b n b m J q.q.q.q.q.q.q.q.q.q.q.",
"q.q.q.q.q.O + o q.q.q.q.q.q.q.q.q.q.q.q.q.q.q.q.q.9.8.*.&.J x @ t e q t J b l Z q.q.q.q.q.q.q.q.q.q.",
"q.q.q.q.Y C q q.q.q.q.q.q.q.q.q.q.q.q.q.q.q.q.q.q.9.*.L H J J e b = l # J J J J Y q.q.q.q.q.q.q.q.q.",
"q.q.q.q.P L L q.q.q.q.q.q.q.q.q.q.q.q.q.q.q.q.q.q.Y J J L J J m d b c Z n L L I I Y q.q.q.q.q.q.q.q.",
"q.q.q.q.J J Y q.q.q.q.q.q.q.q.q.q.q.q.q.q.q.q.q.q.J J J J J J J J J Z J J J J L J J q.q.q.q.q.q.q.q.",
"q.q.q.q.9 t q.q.q.q.q.q.q.q.q.q.q.q.q.q.q.q.q.q.q.I J J J J J J J J J L I J I J J J J q.q.q.q.q.q.q.",
"q.q.q.q.+ O q q.q.q.q.q.q.q.q.q.q.q.q.q.q.q.q.q.J L J J J J J J H J J J J J J J J n J q.q.q.q.q.q.q.",
"q.q.q.q.b n E q.q.q.q.q.q.q.q.q.q.q.q.q.q.q.q.q.L L L n J J L J + C J J J J . u J J e # q.q.q.q.q.q.",
"q.q.q.q.L L J q.q.q.q.q.q.q.q.q.q.q.q.q.q.q.q.q.q q r J J J J b   z J J L J X e J H x l q.q.q.q.q.q.",
"q.q.q.q.J c d q.q.q.q.q.q.q.q.q.q.J Y t O x I x w r i Z H G H H J J J J L J J J G v s i q.q.q.q.q.q.",
"q.q.q.q.# O O : q.q.q.q.q.q.q.r + Z J q # L U x C C C Z J v F H C J J Y <.0.I J J G u 9 q.q.q.q.q.q.",
"q.q.q.q.q.+ 0 Z q.q.q.q.q.J J r O J J 0 w J I b : = O f J J J H J Z J U L Y U I J J 6.,.q.q.q.q.q.q.",
"q.q.q.q.q.J J J J q.q.q.+ c J t @ J J q r J I Z z C I J J J J J J J J L L J I g J J Y U 4.q.q.q.q.q.",
"q.q.q.q.q.q.Y J b + 0 C + b J p @ J J q t J J J D ,.:.I Z I J I J 7 c v 8 a a y V L >.2.q.q.q.q.q.q.",
"q.q.q.q.q.q.q.L : + x m + b I p # J J w p J J m S z U ,.I I J I M 3 ; - ^ ^ / ' _ ~ 6 +.q.q.q.q.q.q.",
"q.q.q.q.q.q.q.q.q.p J m O b Z l # J m e t J J m J S ,.N 5 B N 1 Q ] _ _ ] ' ' ] ' $ { ( q.q.q.q.q.q.",
"q.q.q.q.q.q.q.q.q.Z I I q t I Z + J J m J J J J J J Z > % ~ % ] % ' _ ) ] ( % ) ] ' ] ! q.q.q.q.q.q.",
"q.q.q.q.q.q.q.q.q.Y U J L m J J m J J J J J J J J J J b ~ _ Q < Q ' _ _ ] ' ' ] ] ) Q q.q.q.q.q.q.q.",
"q.q.q.q.q.q.q.q.q.m J J I L L J I J J J J J J J J J J P & * A W O.} 5 4 2 ` 4 5 & y q.q.q.q.q.q.q.q.",
"q.q.q.q.q.q.q.C k m J J J L J J L J L J J J m J J J J H : d U +.5.6.2.J J J J Z 0 J b q.q.q.q.q.q.q.",
"q.q.q.q.x k z z c J m J J Z J J J L J J J I b c J J J J J H l o ,.6.5.Y Y L L J I J # 9 J J J J Y q.",
"q.q.Y J I Z J J J J J J Z J J J L L U L L L L C z J I L I J w = J q.q.q.q.q.E L L J Z J J J J J L q.",
"q.Y J J J J J c Z J x J J J J J J L L I J I L J ,.A x J I I b m J d 9 q.q.q.q.q.Y J J J L J L J q.q.",
"q.E J J J 0 J i k J 9 b J J J J J I L L L L I ,.6.7.2.q.Y L J J J 0 b Y K Y J q.q.q.Y Y J J q.q.q.q.",
"q.q.q.L J @ Y r # J 9 q Y Y J J L J I Y E L q.q.q.q.q.q.q.q.J J H J L J J J J I q.q.q.q.q.q.q.q.q.q.",
"q.q.q.q.q.q.q.q.q.q.q.q.q.q.q.q.q.q.q.q.q.q.q.q.q.q.q.q.q.q.q.q.L J J L J J U I q.q.q.q.q.q.q.q.q.q.",
"q.q.q.q.q.q.q.q.q.q.q.q.q.q.q.q.q.q.q.q.q.q.q.q.q.q.q.q.q.q.q.q.q.Y J L P H q.q.q.q.q.q.q.q.q.q.q.q.",
"q.q.q.q.q.q.q.q.q.q.q.q.q.q.q.q.q.q.q.q.q.q.q.q.q.q.q.q.q.q.q.q.q.q.q.Y q.q.q.q.q.q.q.q.q.q.q.q.q.q.",
"q.q.q.q.q.q.q.q.q.q.q.q.q.q.q.q.q.q.q.q.q.q.q.q.q.q.q.q.q.q.q.q.q.q.q.q.q.q.q.q.q.q.q.q.q.q.q.q.q.q.",
"q.q.q.q.q.q.q.q.q.q.q.q.q.q.q.q.q.q.q.q.q.q.q.q.q.q.q.q.q.q.q.q.q.q.q.q.q.q.q.q.q.q.q.q.q.q.q.q.q.q.",
"q.q.q.q.q.q.q.q.q.q.q.q.q.q.q.q.q.q.q.q.q.q.q.q.q.q.q.q.q.q.q.q.q.q.q.q.q.q.q.q.q.q.q.q.q.q.q.q.q.q.",
"q.q.q.q.q.q.q.q.q.q.q.q.q.q.q.q.q.q.q.q.q.q.q.q.q.q.q.q.q.q.q.q.q.q.q.q.q.q.q.q.q.q.q.q.q.q.q.q.q.q.",
"q.q.q.q.q.q.q.q.q.q.q.q.q.q.q.q.q.q.q.q.q.q.q.q.q.q.q.q.q.q.q.q.q.q.q.q.q.q.q.q.q.q.q.q.q.q.q.q.q.q.",
"q.q.q.q.q.q.q.q.q.q. .X.$.#.#.o.@... .@.@.#.#.#.#.@.#.@...| X.#.@.| X.q.q.q.q.q.q.q.q.q.q.q.q.q.q.q.",
"q.q.q.q.q.q.q.q.q.#. . .X.X.....X... .X..... . . . . . ... . .X. .X. .X.q.q.q.q.q.q.q.q.q.q.q.q.q.q.",
"q.q.q.q.q.q.q.q.q.q.q.q.q.q.q.q.%.%.$.X.| X.o.X.o.o.@.....o.@.%.q.q.q.q.q.q.q.q.q.q.q.q.q.q.q.q.q.q.",
"q.q.q.q.q.q.q.q.q.q.q.q.q.q.q.q.q.q.q.q.q.q.q.q.q.q.q.q.q.q.q.q.q.q.q.q.q.q.q.q.q.q.q.q.q.q.q.q.q.q.",
"q.q.q.q.q.q.q.q.q.q.q.q.q.q.q.q.q.q.q.q.q.q.q.q.q.q.q.q.q.q.q.q.q.q.q.q.q.q.q.q.q.q.q.q.q.q.q.q.q.q.",
"q.q.q.q.q.q.q.q.q.q.q.q.q.q.q.q.q.q.q.q.q.q.q.q.q.q.q.q.q.q.q.q.q.q.q.q.q.q.q.q.q.q.q.q.q.q.q.q.q.q."
};
