/* XPM */
static char *result[] = {
/* columns rows colors chars-per-pixel */
"50 50 116 2 ",
"   c #750D0E",
".  c #7A0E0F",
"X  c #7C0F10",
"o  c #7E1011",
"O  c #841213",
"+  c #8A1314",
"@  c #921517",
"#  c #961718",
"$  c #981719",
"%  c #971819",
"&  c #9C191A",
"*  c #A9171A",
"=  c #A51B1C",
"-  c #AB1D1E",
";  c #B21E1F",
":  c #AE1E20",
">  c #B41E21",
",  c #BA1F21",
"<  c #993B2D",
"1  c #AD2222",
"2  c #AF2A27",
"3  c #B12424",
"4  c #B92022",
"5  c #B22927",
"6  c #B32C29",
"7  c #B6322C",
"8  c #B8352F",
"9  c #B5382D",
"0  c #A93B30",
"q  c #BA3B32",
"w  c #9E533B",
"e  c #BE4237",
"r  c #BE4739",
"t  c #C04739",
"y  c #C34C3D",
"u  c #806749",
"i  c #856C4E",
"p  c #866F50",
"a  c #886F51",
"s  c #877051",
"d  c #897153",
"f  c #8E7658",
"g  c #91795B",
"h  c #C64F40",
"j  c #C65341",
"k  c #C85443",
"l  c #C55843",
"z  c #CA5A46",
"x  c #CA5B48",
"c  c #C76046",
"v  c #C9634C",
"b  c #CB6B52",
"n  c #CF7455",
"m  c #9A8364",
"M  c #8D877E",
"N  c #A28B6B",
"B  c #AB9677",
"V  c #AD9878",
"C  c #D78661",
"Z  c #D98C64",
"A  c #DC9267",
"S  c #DC936A",
"D  c #DE9A6F",
"F  c #E6AD7B",
"G  c #E8B27D",
"H  c #8F8981",
"J  c #918C84",
"K  c #94918B",
"L  c #B9A584",
"P  c #BEB59E",
"I  c #969EA6",
"U  c #989FA7",
"Y  c #97A0A7",
"T  c #98A0A7",
"R  c #99A1A9",
"E  c #B0AFA3",
"W  c #BEB7A1",
"Q  c #BFB8A1",
"!  c #B3B6B2",
"~  c #BFBDB3",
"^  c #C2B090",
"/  c #C0B79F",
"(  c #CFBD9B",
")  c #EAB481",
"_  c #ECBC8A",
"`  c #C2B9A2",
"'  c #C2BCA9",
"]  c #F6D58F",
"[  c #F2CF9B",
"{  c #F7D794",
"}  c #F8D794",
"|  c #F7D896",
" . c #F8D996",
".. c #F1D598",
"X. c #F7D998",
"o. c #F8DA99",
"O. c #DAC8A6",
"+. c #C1C0B7",
"@. c #E2D1AF",
"#. c #F9DEA4",
"$. c #FADFA8",
"%. c #E6D7B5",
"&. c #EBDBB8",
"*. c #FAE0A7",
"=. c #FAE1AB",
"-. c #EFE1BE",
";. c #FBE4B2",
":. c #F2E2BF",
">. c #FCE7B8",
",. c #FDE9BE",
"<. c #F3E4C2",
"1. c #F7E8C7",
"2. c #FCEAC4",
"3. c #FEEFCB",
"4. c #FFF0CD",
"5. c None",
/* pixels */
"5.5.5.5.5.5.5.5.5.5.5.5.5.5.5.5.5.5.5.5.5.5.5.5.5.5.5.5.5.5.5.5.5.5.5.5.5.5.5.5.5.5.5.5.5.5.5.5.5.5.",
"5.5.5.5.5.5.5.5.5.5.5.5.5.5.5.5.5.5.5.5.5.5.5.5.5.5.5.5.5.5.5.5.5.5.5.5.5.5.5.5.5.5.5.5.5.5.5.5.5.5.",
"5.5.5.5.5.5.5.5.5.5.5.5.5.5.5.5.5.5.5.5.5.5.5.5.5.5.5.5.5.5.5.5.5.5.5.5.5.5.5.5.5.5.5.5.5.5.5.5.5.5.",
"5.5.5.5.5.5.5.5.5.5.5.5.5.5.5.5 > ; > , , > > > > , - , , > > > 4 > > 5.5.5.5.5.5.5.5.5.5.5.5.5.5.5.",
"5.5.5.5.5.5.5.5.5.5.5.5.5.: > h q - - : - - - - - : - : - - - - - : - : 5.5.5.5.5.5.5.5.5.5.5.5.5.5.",
"5.5.5.5.5.5.5.5.5.5.5.5.; = - 3 k 8 - : = - - - - : : : - = = = - - = - - - 5.5.5.5.5.5.5.5.5.5.5.5.",
"5.5.5.5.5.5.5.5.5.5.5., - - 2 - 1 j 8 = = = #   + $ = # X X . + $ +   O @ # + 5.5.5.5.5.5.5.5.5.5.5.",
"5.5.5.5.5.5.5.5.5.5.; : - l { y - ; k 0 X O & - = % + $ : 1 > = # = - - = # & ; 5.5.5.5.5.5.5.5.5.5.",
"5.5.5.5.5.5.5.5.5.: : - l { { ..v : - y e - - - = : : : : - - : - - - - : 3 : : , 5.5.5.5.5.5.5.5.5.",
"5.5.5.5.5.5.5.5.: - - c { | X.{ { b = : e y : - - : - - - - : > : - - - : : : : - > 5.5.5.5.5.5.5.5.",
"5.5.5.5.5.5.5.= ; - b } } { { { { X.n : 1 y t : = - : - $ : : : - $ O $ - : = @ & - > 5.5.5.5.5.5.5.",
"5.5.5.5.5.5.; - - n } | | { { { { | | n : : y t + O O   o   X O   O = O . X X @ o     . 5.5.5.5.5.5.",
"5.5.5.5.5.- : : C } { X.{ { | X.{ | { { C - - y y = : = - - - - > : - : 3 - 1 - - : - - - 5.5.5.5.5.",
"5.5.5.5.- - - A { { { X.X.{ | X. .X.X.X.{ A - : q y - : : - : : : - : : - > : - : - 3 - : - 5.5.5.5.",
"5.5.5.- - - A | { { X.X.{ { { | X.X.{ X.X.X.A : 1 q h : - : : : : : - 3 > - : - - - - : > : ; 5.5.5.",
"5.5.- - 3 Z  .| X.{ { X.X.X.o.| | |  .| { X.{ Z 1 - 9 l 1 = = = @ + $ & $ @ o . + & & O X @ & = 5.5.",
"5.- - 1 D | | | X.{ { { X.{ { { { {  .| | X.| { D 3 = q x O   o + & + O . + - - & + + $ - $ O o $ 5.",
"- : : G  .| | | X.{ { { X.X.{ { { { | X.{ X.X.| X.F * = 8 z 1 : - : - - - - = - - = - : : - : : : - ",
": 3 ) | X.{ |  .X. .{ X.o.=.;.;.o.| | { | | X. .X.{ ) * - 7 l 3 = - : : - - - - = - - 3 > : ; - : - ",
"6 F X.| X.{ | | X.o.>.2.3.%.O.%.1.3.,.#.| { |  .X.{ { F 1 - 6 j y y y y y y y y y y y y y h y y y y ",
"< | } |  .| X.{ $.3.@.V p a d d d N ( 2.;.X.| | | | { | _ 6 : : 5 5 5 1 2 1 5 2 6 5 5 5 5 5 6 5 5 2 ",
"w } | X.| | | #.3.^ d s d a s d d s d m :.2.| | | | | | *...9 2 2 6 6 2 6 6 2 6 6 6 2 6 6 6 7 6 1 = ",
"5.| X.{ | { o.4.L a a a d d d f f f d d f 4.=.| | | | | #.#.{ { | | | | { | |  .| | ] } | o.| | | 5.",
"5.| X.{ | X.=.1.d a a d d s d d s d d a i B 4.| { { ] ..#.$.{ { { | | X.] { | | } } } | | | | | | 5.",
"5.| { | { { 2.L p s f d a f f d d d i d d g 4.#.| { | | $.*.{ | X.X.X.X.X.X.| | | { | | | { { { o.5.",
"5.| | { | { 4.d p p s d p p d s d d d s d d <.=.X.| | X.#.*.| | o.X. . . .{ { { | | | X.| | { { o.5.",
"5. .| X.| | 4.u p s s s p a p p a a d d s d -.=.{ | | X.=.*.X.|  .X.| | | X.X.| | { |  .| | | {  .5.",
"5.| { X.} | 4.a p p f s p p p p i i i i d i <.=.{ |  .o.$.=.o. .X.X. .{ o.X. .X.X.| X.| |  .| | o.5.",
"5.X.X.o.} o.4.d p p s p p p p i i i a i i i <.=.| | X.X.*.=.{ X.X.| | | | X.{ X. .{ X.X.| X.X.| o.5.",
"5.| o.| | o.4.i p p a p i p p p s i s u a i <.=.| | |  .*.*.| | { { { | X.{  .X.X.X.{ X.| | | |  .5.",
"5.| | { o.o.4.a s p p p u p i p p a a s a u &.=.X.| { | #.$.| | { { { | { |  .X.| { { X.| | | | } 5.",
"5.{ { | X.o.4.i p p p p p p p p i p p s d s <.=.| | | { #.*.| { { { { | { { { | | X.X.X.X.| |  .X.5.",
"5.{ {  .X. .4.d a a p p u i i p p p f p p i <.$.X.{ { { *.*.} | { | { | { { X. . .o.X.| |  .X.{  .5.",
"5.| X. .| #.4.i a a u i p p p u p p p p p p <.;.{ { { X.o.#.| | | | | { | X.|  .o.X.{ { { | X.X. .5.",
"5.o.X.X.X. .4.a a i u i p p s p p p d p p u -.$.{ { { { #.#.| X. .{ | | { { { { X.{ { { { X.| | { 5.",
"5.X. .| |  .3.a a p p p p u p s p p f s p p <.;.| { { { $.=.|  .o.| { | { { { | X.{ { X.X.{ | | o.5.",
"5.| X.| |  .3.i p p p p u s s s p d p s a i <.;.X.{ {  .$.$.| | X.| { | X.| { | | | { X.X.| | { | 5.",
"5.| { | | X.3.i p p p s s s s f a p s s i a -.=.X.{ | { $.=.{ | | | { | { X.| | { { { X.| | | | | 5.",
"5.| { | | X.4.u p a p p p p s s s p p p p i :.=.} { X.X.$.#.] }  .X.| | | | { { { } | | | | X.X.o.5.",
"5.| | | |  .3.i a p p p p p s p s a a a a s <.=.X.X.{ X.$.$.{ | | X.X.| X.X.| | { {  .X.| | X.{ o.5.",
"5.{ { { X.o.4.d p s d d d p p a s d d a s a :.$.| X.| X.*.$.X.o. . .o.X.X.| | | | X.X.| | X.{ X.o.5.",
"5.| { | {  .3.d d f d d d a p d a a s a p p <.$.X. . .X.*.$.{ X.o.X.X.X.{ { } { | | o.X.| X.X.| o.5.",
"5.| o.X.| X.4.d d a d p p p d a d a p i p u <.$.{ | X.| #.=.| { o.X.X. .X.X.X.| { X.X.{ { X.X.X. .5.",
"! P ` ` ` W +.J H K K H H H H H H H H H H H ~ ~ ` ` P ` ' Q W W ` ` ` / P P Q ` ` ` ` ` P Q ` W E 5.",
"I T T R R T T R Y T I I I I I I T T T T T R I T I T I T I U U Y T T T U T T T U T T I I I Y T T U Y ",
"U T Y U T T R R T T I T I I I I T R T T T R R T I I I I I U I U U U U U T U T Y Y I I I I I T Y I R ",
"5.5.5.5.5.5.5.5.5.5.5.5.5.5.5.5.5.5.5.5.5.5.5.5.5.5.5.5.5.5.5.5.5.5.5.5.5.5.5.5.5.5.5.5.5.5.5.5.5.5.",
"5.5.5.5.5.5.5.5.5.5.5.5.5.5.5.5.5.5.5.5.5.5.5.5.5.5.5.5.5.5.5.5.5.5.5.5.5.5.5.5.5.5.5.5.5.5.5.5.5.5.",
"5.5.5.5.5.5.5.5.5.5.5.5.5.5.5.5.5.5.5.5.5.5.5.5.5.5.5.5.5.5.5.5.5.5.5.5.5.5.5.5.5.5.5.5.5.5.5.5.5.5.",
"5.5.5.5.5.5.5.5.5.5.5.5.5.5.5.5.5.5.5.5.5.5.5.5.5.5.5.5.5.5.5.5.5.5.5.5.5.5.5.5.5.5.5.5.5.5.5.5.5.5."
};
