/* XPM */
static char *result[] = {
/* columns rows colors chars-per-pixel */
"50 50 147 2 ",
"   c #4F6366",
".  c #5A6D6F",
"X  c #A30E17",
"o  c #BE001F",
"O  c #AA121E",
"+  c #B4131E",
"@  c #BE0020",
"#  c #A91C26",
"$  c #B31421",
"%  c #BB1421",
"&  c #C2001F",
"*  c #CB001F",
"=  c #C20F1A",
"-  c #DE0119",
";  c #C2121E",
":  c #E3001D",
">  c #C40021",
",  c #CC0122",
"<  c #C70921",
"1  c #CE0D23",
"2  c #D20023",
"3  c #DC0124",
"4  c #D50822",
"5  c #DB0826",
"6  c #DE0C2E",
"7  c #C41422",
"8  c #CA1323",
"9  c #C31924",
"0  c #C11F2D",
"q  c #D1142C",
"w  c #DE1536",
"e  c #D61A31",
"r  c #DB1837",
"t  c #E20025",
"y  c #E80027",
"u  c #E50D26",
"i  c #E40128",
"p  c #E40C2E",
"a  c #E71B33",
"s  c #CF323A",
"d  c #E52033",
"f  c #E6253D",
"g  c #E5303E",
"h  c #DE2540",
"j  c #D52B43",
"k  c #CB3344",
"l  c #C03843",
"z  c #E6364B",
"x  c #E8394F",
"c  c #BE4A53",
"v  c #C6474F",
"b  c #C5465B",
"n  c #CA4F58",
"m  c #D34C55",
"M  c #D4555D",
"N  c #CA556C",
"B  c #DF576C",
"V  c #EC4F68",
"C  c #E55269",
"Z  c #ED5D73",
"A  c #C5646D",
"S  c #CD6D7D",
"D  c #D8687A",
"F  c #C87479",
"G  c #ED6576",
"H  c #C46C81",
"J  c #D77786",
"K  c #EF7184",
"L  c #E97987",
"P  c #E77D8E",
"I  c #ED7C89",
"U  c #B4818B",
"Y  c #B68791",
"T  c #B28893",
"R  c #B09EA8",
"E  c #A8ACB3",
"W  c #BFAAB1",
"Q  c #B3AAB3",
"!  c #A7B1B9",
"~  c #ACB6BE",
"^  c #AEB8BF",
"/  c #B1B4BC",
"(  c #D8818D",
")  c #CB8E98",
"_  c #D19597",
"`  c #DB9097",
"'  c #E08087",
"]  c #E1838A",
"[  c #E38690",
"{  c #EE8891",
"}  c #F18191",
"|  c #F28B96",
" . c #E5959A",
".. c #F3949E",
"X. c #D497A1",
"o. c #DF9FA8",
"O. c #F097A0",
"+. c #CDA6A8",
"@. c #D3BCBD",
"#. c #E5A1A3",
"$. c #E8A3A9",
"%. c #E0ABB5",
"&. c #F6B3BC",
"*. c #AEB7C0",
"=. c #AEB9C1",
"-. c #B2BCC4",
";. c #B6BFC8",
":. c #BCBAC3",
">. c #DDBDC1",
",. c #B7C0C7",
"<. c #B7C0CA",
"1. c #BBC3CA",
"2. c #C1C8CF",
"3. c #C5CBD1",
"4. c #C8CFD5",
"5. c #DCCFD0",
"6. c #CBD1D7",
"7. c #CED4D8",
"8. c #D2D4D5",
"9. c #D1D6DB",
"0. c #D6DADC",
"q. c #D9DDDD",
"w. c #F8C1C7",
"e. c #F0C6C8",
"r. c #E2DCDD",
"t. c #FAD2D8",
"y. c #F6DBDD",
"u. c #D7DCE0",
"i. c #D9DEE2",
"p. c #E3DFE0",
"a. c #FADFE1",
"s. c #DEE1E3",
"d. c #E2E5E5",
"f. c #E3E6E9",
"g. c #E6E9EA",
"h. c #EAEDED",
"j. c #FDE4E6",
"k. c #F5E9EA",
"l. c #FCECED",
"z. c #EDEFF1",
"x. c #FDEEF0",
"c. c #EFF0F1",
"v. c #F3F4F5",
"b. c #FAF2F3",
"n. c #F7F8F8",
"m. c #FFFFFF",
"M. c None",
/* pixels */
"M.M.M.M.M.M.M.M.M.M.M.M.M.M.M.M.M.M.M.M.M.M.M.M.M.M.M.M.M.M.M.M.M.M.M.M.M.M.M.M.M.M.M.M.M.M.M.M.M.M.",
"M.M.M.M.M.M.M.M.M.M.M.M.M.M.M.M.M.M.M.M.M.M.M.M.M.M.M.M.M.M.M.M.M.M.M.M.M.M.M.M.M.M.M.M.M.M.M.M.M.M.",
"M.M.M.M.M.M.M.M.M.M.M.M.M.M.M.M.M.M.M.M.M.M.M.M.M.M.M.M.M.M.M.M.M.M.M.M.M.M.M.M.M.M.M.M.M.M.M.M.M.M.",
"M.M.M.M.M.M.M.M.M.M.M.M.M.M.M.M.M.M.M.M.M.M.M.M.^ ~ =.M.M.M.M.M.M.M.M.M.M.M.M.M.M.M.M.M.M.M.M.M.M.M.",
"M.M.M.M.M.M.M.M.M.M.M.M.M.M.M.M.M.M.M.M.M.M.=.6.z.m.m.-.M.M.M.M.M.M.M.M.M.M.M.M.M.M.M.M.M.M.M.M.M.M.",
"M.M.M.M.M.M.M.M.M.M.M.M.M.M.M.M.M.M.M.M.M.<.g.m.m.m.m.s.M.M.M.M.M.M.M.M.M.M.M.M.M.M.M.M.M.M.M.M.M.M.",
"M.M.M.M.M.M.M.M.M.M.M.M.M.M.M.M.M.M.M.*.6.m.m.m.m.m.m.m.-.M.M.M.M.M.M.M.M.M.M.M.M.M.M.M.M.M.M.M.M.M.",
"M.M.M.M.M.M.M.M.M.M.M.M.M.M.M.M.M.M.~ g.m.n.0.v.m.m.m.m.9.M.M.M.M.M.M.M.M.M.M.M.M.M.M.M.M.M.M.M.M.M.",
"M.M.M.M.M.M.M.M.M.M.M.M.M.M.M.M.M.M.+.b.m.q.n.m.m.m.v.m.s.*.M.M.M.M.M.M.M.M.M.M.M.M.M.M.M.M.M.M.M.M.",
"M.M.M.M.M.M.M.M.M.M.M.M.M.M.M.M.M.9 9 ] g.h.m.m.m.s.h.m.v.;.M.M.M.M.M.M.M.M.M.M.M.M.M.M.M.M.M.M.M.M.",
"M.M.M.M.M.M.M.M.M.M.M.M.M.M.M.M.M.7 7 % 5.m.$.s l A m.m.m.~ M.M.M.M.M.M.M.M.M.M.M.M.M.M.M.M.M.M.M.M.",
"M.M.M.M.M.M.M.M.M.M.M.M.M.M.M.M.8 7 7 O ; 7 8 % O ; a.m.m.3.M.M.M.M.M.M.M.M.M.M.M.M.M.M.M.~ 2.f.=.M.",
"M.M.M.M.M.M.M.M.M.M.M.M.M.M.M.M.7 1 5 t t t i i p U m ( [ n < M.M.M.M.M.M.M.M.M.M.M.M.-.9.v.m.i.M.M.",
"M.M.M.M.M.M.M.M.M.M.M.M.M.M.M.1 i i t i t i i t t d.Y 0 % O 7 M.M.M.M.M.M.M.M.M.M.M.<.n.m.m.m.7.M.M.",
"M.M.M.M.M.M.M.M.M.M.M.M.M.M.t t t , > i i i 2 , t l.i./ # 7 9 7 M.M.M.M.M.M.M.M.=.3.m.m.m.m.m.-.M.M.",
"M.M.M.M.M.M.M.M.M.M.M.M.M.t t t i t t > t t t 2 , m.m.m.-.c 7 7 M.M.M.M.M.M.M.-.0.m.m.m.m.m.0.M.M.M.",
"M.M.M.M.M.M.M.M.M.M.M.t t t t t t t i > t t t 3 D m.v.0.n./ 0 ; 7 M.M.M.M.M.=.d.m.m.m.m.m.m.*.M.M.M.",
"M.M.M.M.M.M.M.M.M.t t t t t t t t t 2 2 t t t o P m.m.g.c.v.R 8 8 M.M.M.M.-.h.m.m.m.m.m.m.s.=.M.M.M.",
"M.M.M.M.M.M.M.M.p t t t t t t t t t 3 > 3 t t 2 J m.m.g.h.m.s.Y 7 M.M.M.M.%.m.m.m.m.m.m.m.9.M.M.M.M.",
"M.M.M.M.M.M.M.1.t t t t , t t t t t t 2 , t t t ) m.m.0.m.m.n.4.Q M.M.M.t Z m.m.m.c.d.0.n.i.M.M.M.M.",
"M.M.M.M.M.-.3.m.G t t t 2 * t t t t t 3 , t t ..0.m.m.g.c.m.q.n.:.N M.t t t l.q.q.d.m.m.m.i.~ M.M.M.",
"M.M.M.M.;.s.m.m.m...p t t * , t t t t & t i t.s.h.m.m.h.h.m.m.r.a 3 t t 3 o S m.m.m.m.m.m.g.~ M.M.M.",
"M.M.M.<.u.m.m.m.m.m.n.j.g t , 3 t t t & r b.m.m.q.m.m.X.z a e , t , > t * t V m.m.m.m.m.m.g.^ M.M.M.",
"M.M.M.7.m.m.m.m.m.m.m.m.m.j.q 2 t t t C p.m.m.m.q.x t * 2 t > 2 t t , t t t t m.m.m.m.m.m.<.M.M.M.M.",
"M.M.-.m.m.m.  v.m.m.m.m.m.m.b.o...Z } n.q.m.m.m.S t t t > t 3 , t 3 > t t t f m.m.m.m.m.f.-.M.M.M.M.",
"M.-.g.m.m.n.. c.m.m.m.m.m.m.m.0.m.m.m.m.d.m.m.n.k t t t @ t 3 @ t 2 > t 2 , J 0.0.0.n.m.<.M.M.M.M.M.",
"M.-.m.m.m.m.m.m.m.m.m.m.m.m.m.q.m.m.m.g.h.m.m.c.* t t 3 2 t 2 , t t > t 3 t w.m.m.m.m.m.-.M.M.M.M.M.",
"M.-.~ 0.n.m.m.m.m.m.m.m.m.m.m.s.m.m.m.d.g.m.m.m.b t t t @ t t @ t t o t t t K m.m.m.m.h.-.M.M.M.M.M.",
"M.M.9.z.*.1.m.m.m.m.m.m.m.m.m.d.m.m.m.m.0.m.m.m.8.: t t , 3 i , t 2 2 t t 3 : m.m.m.m.m.! M.M.M.M.M.",
"M.M.-.s.m.m.m.m.m.m.m.m.m.m.m.@.#.m.m.m.8.m.m.h.g.l.| u 2 2 3 > t t & t t 2 , 0.q.d.m.m.<.M.M.M.M.M.",
"M.M.M.*.i.m.m.m.m.m.m.m.m.m.g.v O ; M ` g.m.m.m.q.m.m.v.i.x.I , t & 3 t t t : m.m.v.m.m.i.M.M.M.M.M.",
"M.M.M.M.-.2.n.m.m.m.m.m.m.v.+.; + O $ % = m  .m.>.y.m.m.q.m.n.j t t t t 2 t I m.m.m.m.m.m.-.M.M.M.M.",
"M.M.M.M.M.M.*.9.m.m.m.n.h.q.b.9 + + % $ + 8 7 4 & t &.m.q.m.9.H M.M.t t j _ n.m.m.m.m.m.m.=.M.M.M.M.",
"M.M.M.M.M.M.M.M.~ f.m.v.g.m.m. .9 O O 7 7 7 7 2 2 t t y.d.n.=.M.M.M.r { m.m.q.n.m.m.m.m.v.1.M.M.M.M.",
"M.M.M.M.M.M.M.M.M.-.=.f.m.m.m.m.e.7 7 % 7 7 4 t @ t t L n.=.M.M.M.M.M.7.m.m.m.8.n.m.m.m.u.M.M.M.M.M.",
"M.M.M.M.M.M.M.M.M.M.M.M.-.7.m.m.Z 3 1 8 5 3 t t o t 3 f 1.M.M.M.M.M.M.-.g.m.m.m.s.n.m.m.9.M.M.M.M.M.",
"M.M.M.M.M.M.M.M.M.M.M.M.M.M.-.C t t i i i t 3 @ 3 t : M.M.M.M.M.M.M.M.M.-.m.m.m.m.m.m.m.u.M.M.M.M.M.",
"M.M.M.M.M.M.M.M.M.M.M.M.M.M.M.M.M.3 t y 3 5 4 1 < ( 1.M.M.M.M.M.M.M.M.M.M.3.m.m.m.m.m.m.z.~ M.M.M.M.",
"M.M.M.M.M.M.M.M.M.M.M.M.M.M.M.M.M.M.M.M.M.7 + + O F m.-.M.M.M.M.M.M.M.M.M.M.4.m.m.m.m.m.m.*.M.M.M.M.",
"M.M.M.M.M.M.M.M.M.M.M.M.M.M.M.M.M.M.M.M.M.M.7 + c h.g.s.=.M.M.M.M.M.M.M.M.M.~ 7.m.m.m.m.m.=.M.M.M.M.",
"M.M.M.M.M.M.M.M.M.M.M.M.M.M.M.M.M.M.M.M.M.M.8 8 X n.d.m.=.M.M.M.M.M.M.M.M.M.M.-.3.m.m.m.m.<.M.M.M.M.",
"M.M.M.M.M.M.M.M.M.M.M.M.M.M.M.M.M.M.M.M.M.M.M.8 k 0.m.m.7.M.M.M.M.M.M.M.M.M.M.M.^ i.m.m.h.E M.M.M.M.",
"M.M.M.M.M.M.M.M.M.M.M.M.M.M.M.M.M.M.M.M.M.M.M.E 0.v.q.m.6.M.M.M.M.M.M.M.M.M.M.M.M.-.f.m.i.M.M.M.M.M.",
"M.M.M.M.M.M.M.M.M.M.M.M.M.M.M.M.M.M.M.M.M.M.M.M.~ g.m.m.-.M.M.M.M.M.M.M.M.M.M.M.M.M.1.i.;.M.M.M.M.M.",
"M.M.M.M.M.M.M.M.M.M.M.M.M.M.M.M.M.M.M.M.M.M.M.M.M.<.m.m.=.M.M.M.M.M.M.M.M.M.M.M.M.M.M.=.M.M.M.M.M.M.",
"M.M.M.M.M.M.M.M.M.M.M.M.M.M.M.M.M.M.M.M.M.M.M.M.M.M.1.-.M.M.M.M.M.M.M.M.M.M.M.M.M.M.M.M.M.M.M.M.M.M.",
"M.M.M.M.M.M.M.M.M.M.M.M.M.M.M.M.M.M.M.M.M.M.M.M.M.M.M.M.M.M.M.M.M.M.M.M.M.M.M.M.M.M.M.M.M.M.M.M.M.M.",
"M.M.M.M.M.M.M.M.M.M.M.M.M.M.M.M.M.M.M.M.M.M.M.M.M.M.M.M.M.M.M.M.M.M.M.M.M.M.M.M.M.M.M.M.M.M.M.M.M.M.",
"M.M.M.M.M.M.M.M.M.M.M.M.M.M.M.M.M.M.M.M.M.M.M.M.M.M.M.M.M.M.M.M.M.M.M.M.M.M.M.M.M.M.M.M.M.M.M.M.M.M.",
"M.M.M.M.M.M.M.M.M.M.M.M.M.M.M.M.M.M.M.M.M.M.M.M.M.M.M.M.M.M.M.M.M.M.M.M.M.M.M.M.M.M.M.M.M.M.M.M.M.M."
};
