/* XPM */
static char *_be2136373454ba98fb457619ebf6dac1HQ42MmImC4lzDV6[] = {
/* columns rows colors chars-per-pixel */
"30 30 73 1 ",
"  c None",
". c #730D0E",
"X c #7D0F11",
"o c #7E1311",
"O c #7F674A",
"+ c #831011",
"@ c #8A1415",
"# c #8F1D1A",
"$ c #921517",
"% c #961718",
"& c #991719",
"* c #9C181A",
"= c #A41A1C",
"- c #AB1D1E",
"; c #9C201E",
": c #AD1E20",
"> c #B31E21",
", c #AE2423",
"< c #B12524",
"1 c #B82123",
"2 c #B22826",
"3 c #B42E2A",
"4 c #B5322C",
"5 c #B9352F",
"6 c #B53D32",
"7 c #BA3931",
"8 c #BF4337",
"9 c #BF4B3C",
"0 c #846C4E",
"q c #866E50",
"w c #867051",
"e c #897153",
"r c #917A5B",
"t c #C55341",
"y c #CA5946",
"u c #C15448",
"i c #C66149",
"p c #CE7054",
"a c #968061",
"s c #9C8566",
"d c #A08969",
"f c #DA8E66",
"g c #CE9569",
"h c #DB946A",
"j c #DD986F",
"k c #E8B37E",
"l c #BEAA89",
"z c #969EA6",
"x c #97A0A7",
"c c #98A0A7",
"v c #9AA2A9",
"b c #C7B493",
"n c #EAB680",
"m c #F1C98A",
"M c #F7D58F",
"N c #F7D693",
"B c #F8D795",
"V c #F7D896",
"C c #F9D996",
"Z c #F7D998",
"A c #F9DB9A",
"S c #D3C1A0",
"D c #E6D2AD",
"F c #F9DEA3",
"G c #FADFA8",
"H c #F2DDB1",
"J c #FBE0A9",
"K c #F7E1B2",
"L c #F9E4B7",
"P c #FAE6B9",
"I c #FCE9BC",
"U c #FEECC3",
"Y c #FFEFCA",
/* pixels */
"                              ",
"                              ",
"         32--:->:-=-1         ",
"        >-52--=-:@->%-        ",
"       -2k38o.-X*:=*:$-       ",
"      --kVm77,--:=::-::-      ",
"     =:NNMNN,y,=:=-o+:.*-     ",
"    :-hVVNVVk,6#=*$::&:=%<    ",
"    :jVVNNZVZN:t:-:,-:-:--    ",
"   :pVVNVVVVVVh,t*$*$$@*&*&   ",
"  :tVVZNVVVNVVZf:t=--=-=-:--  ",
" :9ZAVBFHSDJAVABi484445457444 ",
" -gVVZPdaerdUVVNVu,,,<,22,222 ",
"  VZBFb0qqeesYNVVFNMNVVVNNVC  ",
"  VVNIeeeeqqqbFVVANZVNZVCNCC  ",
"  VNBIqeeeqqq0GVVFZAZVMVNVCC  ",
"  CVNP0eqq00qqGZZFZZZVABVAVA  ",
"  CZVIee0000q0FZZAZVZVBVVVVA  ",
"  VNVLew0qqqq0GZZFBNNNBBCCAA  ",
"  MVZPe000qe0eJBBAZZBNZZNCCA  ",
"  ZVVIeOqq0e0qGNZAVVBVBVVCVA  ",
"  VVZIeeq0eeqeJBVFZZVVZVVVVA  ",
"  NVVLeqqqeqqeGVVFVVVNZNCCVA  ",
"  ZVZKee0eeeeeFZZANVVVNVVAAA  ",
"  ANBIqeeqeqe0FZZFZZVVNNVZVA  ",
"  AZBIeeeqqe00FZVFZVZVVVZVAA  ",
"  zvvzvvzvzzzvzzzzcvxzvvxxvz  ",
"  zcvvzvvzvvvvvvzzzzvczxccxx  ",
"                              ",
"                              "
};
