/* XPM */
static char *_f1dd0d6c6db4ec8f1610cef74bdde06QhrRv7D83qVRNv0s[] = {
/* columns rows colors chars-per-pixel */
"30 30 124 2 ",
"   c None",
".  c #BB121E",
"X  c #B61521",
"o  c #BC1421",
"O  c #B71924",
"+  c #B42C35",
"@  c #BE2A35",
"#  c #C60021",
"$  c #CB0022",
"%  c #CC0B22",
"&  c #D30023",
"*  c #DB0124",
"=  c #D20C24",
"-  c #DF0E2E",
";  c #C51522",
":  c #CC1324",
">  c #D4142D",
",  c #D41736",
"<  c #DE1233",
"1  c #E20025",
"2  c #E40926",
"3  c #E40228",
"4  c #E20B2E",
"5  c #DD223E",
"6  c #E6243B",
"7  c #E5303E",
"8  c #E93C56",
"9  c #EA3E5A",
"0  c #BA6974",
"q  c #BE6F79",
"w  c #B7707C",
"e  c #CE5962",
"r  c #DA5369",
"t  c #D35A6E",
"y  c #EB4A62",
"u  c #EB5468",
"i  c #D3616B",
"p  c #D96777",
"a  c #DD737D",
"s  c #E66075",
"d  c #E1677A",
"f  c #E47283",
"g  c #E87688",
"h  c #B6858E",
"j  c #BF8D95",
"k  c #ACB6BE",
"l  c #D68289",
"z  c #DD878E",
"x  c #CA8793",
"c  c #D88491",
"v  c #D19597",
"b  c #E08087",
"n  c #F28794",
"m  c #D496A1",
"M  c #D099A3",
"N  c #DD9BA3",
"B  c #ED99A3",
"V  c #F19AA7",
"C  c #F29DAB",
"Z  c #CDB5BC",
"A  c #E1ACB0",
"S  c #E0B5BC",
"D  c #F7B3BC",
"F  c #AEB8C2",
"G  c #B3BBC4",
"H  c #B8BFC8",
"J  c #F7B8C0",
"K  c #BCC4CC",
"L  c #C2CACF",
"P  c #DFC6C7",
"I  c #C0C7D0",
"U  c #C5CCD2",
"Y  c #C9CCD2",
"T  c #C9D0D6",
"R  c #CED4D9",
"E  c #D1D6DC",
"W  c #D5DADD",
"Q  c #DBDDDE",
"!  c #E3CACE",
"~  c #F0C2C5",
"^  c #F3C2C8",
"/  c #F9C5CD",
"(  c #E4D2D4",
")  c #E9DDDF",
"_  c #FAD0D6",
"`  c #F6DBDD",
"'  c #DADEE2",
"]  c #E7DDE0",
"[  c #DDE1E5",
"{  c #E4E5E5",
"}  c #E8E0E0",
"|  c #E3E6E9",
" . c #E6E9E9",
".. c #EBECED",
"X. c #F0EEEE",
"o. c #ECEFF0",
"O. c #EEF0F1",
"+. c #F2F3F4",
"@. c #FDF2F2",
"#. c #F6F7F8",
"$. c #F6F8F8",
"%. c #F7F8F8",
"&. c #F8F8F8",
"*. c #F8F9F9",
"=. c #F9FAF9",
"-. c #F8F9FA",
";. c #F8FAFA",
":. c #FAFAFB",
">. c #FAFBFB",
",. c #FEF8F9",
"<. c #FDFBFB",
"1. c #FBFCFC",
"2. c gray99",
"3. c #FDFDFD",
"4. c #FDFDFE",
"5. c #FEFCFE",
"6. c #FEFDFE",
"7. c #FEFEFE",
"8. c #FFFEFE",
"9. c #FFFFFE",
"0. c #FFFEFF",
"q. c #FEFFFF",
"w. c white",
"e. c #FEFDFE",
/* pixels */
"                                                            ",
"                                                            ",
"                          F W | G                           ",
"                        U O.w.w...                          ",
"                      W w.W >.w.w.                          ",
"                      z ..>.w...w.R                         ",
"                    ; o v a @ l w.R                     T   ",
"                    = 3 3 3 4 q b i                 T #.'   ",
"                  * * * 3 * * ] h O ;           H  .w.w.K   ",
"                3 3 1 $ 1 1 , <.O.x ;         U o.w.w...    ",
"            1 1 1 1 1 & 1 1 r w. .+.w ;     G $.w.w.w.W     ",
"        K 1 1 & 1 1 1 & * 1 t w.Q w.Q 0     g w.>...+.E     ",
"      R w.u 1 * & 1 1 * * y ( w. .>. .x < 1 & )  .w.w.W     ",
"    R w.w.w.@.7 & 1 1 $ s w.| w.v 6 > 1 # * 1 / w.w.w.'     ",
"  G >.W $.w.w.w.~ d 9 C  .w.S 4 * * & 1 $ 3 1 D w.w.+.H     ",
"  O.w.W #.w.w.w.w. .w.=...w.p 1 1 & & 1 $ 1 & ! { >.R       ",
"  k o.w.w.w.w.w.w. .w...+.w.c 1 1 & * * $ 3 1 _ w.w.R       ",
"  K | +.w.w.w.w.w.P w.w.{ w. .n 2 & * 1 $ 3 * N  .w.R       ",
"    T +.w.w.w.w.} @ . e A ` ] ,.&.X.f 1 & 1 1 D 1.w.O.      ",
"        E w.w.....o . X . ; # 8 w.+.Z   1 - v w.w.w.w.G     ",
"          Y E $.w.~ o o ; % $ 1 B W       ( w. .=.w...      ",
"              H [ V 1 = * 1 $ 1 5         L w.w.O.w.|       ",
"                    1 3 * = % M             I w.w.w.+.      ",
"                          ; + ( E             W w.w.w.F     ",
"                          : O ..w.              E w.>.G     ",
"                            Y ..w.                |  .      ",
"                              [ w.                  K       ",
"                                H                           ",
"                                                            ",
"                                                            "
};
