/* XPM */
static char *a0f46bfb85a94d80826b7c5205514880qGbvrOfvzALeKjY5[] = {
/* columns rows colors chars-per-pixel */
"30 30 43 1 ",
"  c #39383A",
". c #3A393E",
"X c #3C3A3F",
"o c #3C3B40",
"O c #3F3F43",
"+ c #3F3E44",
"@ c #403F42",
"# c #403F44",
"$ c #414043",
"% c #424147",
"& c #444347",
"* c #434248",
"= c #444348",
"- c #46454B",
"; c #47474C",
": c #48474B",
"> c #48474D",
", c #49484C",
"< c #4C4A4F",
"1 c #4D4C4F",
"2 c #4B4A50",
"3 c #4C4B50",
"4 c #4F4E53",
"5 c #4F4E54",
"6 c #504F53",
"7 c #504F54",
"8 c #525156",
"9 c #545257",
"0 c #565557",
"q c #535259",
"w c #545358",
"e c #555459",
"r c #59575C",
"t c #5A595E",
"y c #5C5B5F",
"u c #5D5B60",
"i c #5F5D62",
"p c #605F63",
"a c #605F64",
"s c #646369",
"d c #666469",
"f c #68676C",
"g c #6B6A6F",
/* pixels */
"=ww,%#O%%O--4;;O%>4,;--%%-%OO=",
"%4w-%=44-OO%,,-o@:5,--3,-,-%%%",
"+-,=%-8e,OoO%=%oO%>,=%->,-%%%%",
"@O=-%#,83#OO>4@.O%%OOO%-,-%%#%",
"#O%>%@,e4%O.%>@oO#%@O@-,6,%%%%",
"-%%,*O-4,%%ooO@#OO%--:348>%-,,",
",:%--O%-%%-OOOO-%O-4,3qw8-O>8w",
"-4>==O#%%%3-O%%-=%<,--444-O%,4",
"-4,=>>-,-*,;%:>%%-8-%%-&-%OO%%",
"%----<88,%%#%>#.O-e,=%-:-%O@%:",
"+%,,-,74;-%O@-#.O-8>--,4-%%%%-",
"#%4e4,---,=OO%%oO;w3-4ee-#-%%4",
"%O-e844347,%#%,=O%84%:e8%OO%,8",
",%#>44424<-=O%46--e4%,04@X.:->",
"3%%->->44348=;44>88,%401O  --#",
"%%;-%-34;3,,=;=5-%*-,tr8,#O4-O",
"=%*>--,4884>>->%%%%%%698-%%%%O",
"9<-4,%#-44-%=>OX#-8-O%,6-%,%%%",
"t4->%@O%,-#%-%OO#-8>=&*-%%;=-w",
"7-%:%%%%-=OOOO%--%=%-41>%&,-,e",
",-%-%%-%%-%%=@%,,OO%-774-=-,,4",
"<-=4,%>-#--38%O,-@%;*;>42,-%-@",
"3=-87=,,OO--4--&OO-4-%>8q7=#>=",
"e-%44->-OO@%>,8%oO>4,%3ee4%O>-",
"8=%>,>>-OO#%-7e-=-784<,44-%%-,",
"-%%->>>>---,,44<,;8e4,43---%%-",
"%%--->388888,;-,,-4e8>,-%=-OoO",
";itrrtape44,<4,%-%%:<-%%-,>=%.",
"-gdwufsdi->884-O%=%%,=%%>43-&O",
"%ww--,=--$4yq--@..O+->#O&,*%%%"
};
