/* XPM */
static char *d82612b6b2d3417d9e7ac268a697d758kkfrvrXf1M8dId1X[] = {
/* columns rows colors chars-per-pixel */
"30 30 226 2 ",
"   c None",
".  c #2B201F",
"X  c #6C5236",
"o  c #6F5538",
"O  c #705639",
"+  c #72573A",
"@  c #745639",
"#  c #72583B",
"$  c #74583B",
"%  c #795C3C",
"&  c #795C3D",
"*  c #35547B",
"=  c #7E6141",
"-  c #6F665C",
";  c #555F6D",
":  c #595E77",
">  c #5C6177",
",  c #60646C",
"<  c #7B7672",
"1  c #806247",
"2  c #866845",
"3  c #886845",
"4  c #8A6944",
"5  c #896947",
"6  c #8B6A47",
"7  c #8D6B47",
"8  c #8E6C48",
"9  c #916F4A",
"0  c #93704B",
"q  c #91704C",
"w  c #97714C",
"e  c #95724C",
"r  c #97724D",
"t  c #96744D",
"y  c #9A744C",
"u  c #99754F",
"i  c #9A744E",
"p  c #9C7650",
"a  c #9A7850",
"s  c #9D7851",
"d  c #9E7951",
"f  c #9F7952",
"g  c #9E7953",
"h  c #9F7A52",
"j  c #9C755C",
"k  c #A07451",
"l  c #A17A52",
"z  c #A07B52",
"x  c #A47D53",
"c  c #A07B54",
"v  c #A17C54",
"b  c #A37D55",
"n  c #A47D54",
"m  c #A67C54",
"M  c #A57E54",
"N  c #A57F55",
"B  c #A57E56",
"V  c #AF7956",
"C  c #B27F59",
"Z  c #A88056",
"A  c #A88057",
"S  c #A98157",
"D  c #AB8157",
"F  c #AC8257",
"G  c #A98258",
"H  c #AB8258",
"J  c #AD8459",
"K  c #AE865B",
"L  c #B1865A",
"P  c #B0875B",
"I  c #B6855D",
"U  c #B68B5C",
"Y  c #B68B5D",
"T  c #B48A5E",
"R  c #B78C5E",
"E  c #B98D5E",
"W  c #948577",
"Q  c #B58E66",
"!  c #B78F66",
"~  c #BA8F60",
"^  c #BC8F61",
"/  c #B48F68",
"(  c #BB9062",
")  c #BC9061",
"_  c #BF9161",
"`  c #BD9062",
"'  c #BC9162",
"]  c #BE9162",
"[  c #BF9163",
"{  c #BF9362",
"}  c #BF9263",
"|  c #BF9363",
" . c #BF9364",
".. c #BE9265",
"X. c #B49069",
"o. c #B89068",
"O. c #BB946A",
"+. c #C08B61",
"@. c #C18C60",
"#. c #C08C61",
"$. c #C09060",
"%. c #C19060",
"&. c #C09161",
"*. c #C19361",
"=. c #C19162",
"-. c #C09262",
";. c #C19262",
":. c #C19362",
">. c #C19363",
",. c #C29262",
"<. c #C29362",
"1. c #C29263",
"2. c #C39263",
"3. c #C29363",
"4. c #C39363",
"5. c #C19463",
"6. c #C29463",
"7. c #C39463",
"8. c #C59463",
"9. c #C09265",
"0. c #C09365",
"q. c #C19365",
"w. c #C29364",
"e. c #C19464",
"r. c #C29464",
"t. c #C39464",
"y. c #C29564",
"u. c #C39564",
"i. c #C29465",
"p. c #C39465",
"a. c #C29565",
"s. c #C39565",
"d. c #C39664",
"f. c #C29665",
"g. c #C39765",
"h. c #C49464",
"j. c #C49564",
"k. c #C49565",
"l. c #C59565",
"z. c #C59664",
"x. c #C49665",
"c. c #C69665",
"v. c #C49666",
"b. c #C59666",
"n. c #C49766",
"m. c #C59766",
"M. c #C49767",
"N. c #C59767",
"B. c #C59866",
"V. c #C59867",
"C. c #C69866",
"Z. c #C79967",
"A. c #C89866",
"S. c #C99966",
"D. c #C89967",
"F. c #CA9967",
"G. c #C9976F",
"H. c #C59868",
"J. c #C69968",
"K. c #C69869",
"L. c #C79B68",
"P. c #C7986A",
"I. c #CA9968",
"U. c #C99B68",
"Y. c #CB9B69",
"T. c #C99B6A",
"R. c #CA9B6A",
"E. c #CC9B68",
"W. c #CD9E6A",
"Q. c #CE9D6D",
"!. c #CD9A71",
"~. c #D09879",
"^. c #D09A7B",
"/. c #C4A17E",
"(. c #C9A37B",
"). c #CBA67D",
"_. c #3A5A84",
"`. c #3E5E86",
"'. c #42648D",
"]. c #5F6F87",
"[. c #50688E",
"{. c #5F728F",
"}. c #456792",
"|. c #446892",
" X c #4C6E9A",
".X c #4F6F9C",
"XX c #52729D",
"oX c #6A7588",
"OX c #687789",
"+X c #747C87",
"@X c #5478A7",
"#X c #5578A7",
"$X c #888583",
"%X c #909498",
"&X c #919598",
"*X c #919499",
"=X c #939798",
"-X c #929699",
";X c #92969A",
":X c #92979A",
">X c #93979A",
",X c #93969B",
"<X c #94979B",
"1X c #93989A",
"2X c #94999B",
"3X c #94989C",
"4X c #94999C",
"5X c #979B9C",
"6X c #969A9E",
"7X c #979D9F",
"8X c #999C9F",
"9X c #999DA0",
"0X c #989CA1",
"qX c #9A9FA2",
"wX c #9B9FA2",
"eX c #9CA0A3",
"rX c #D89A88",
"tX c #CBA985",
"yX c #D4A280",
"uX c #D7B18B",
"iX c #D1B08D",
"pX c #D3B392",
"aX c #D1B394",
"sX c #D4B799",
"dX c #E69FA0",
"fX c #E8A0A4",
/* pixels */
"                                                            ",
"                                                            ",
"                                                            ",
"                                                            ",
"                                                            ",
"        F.& o                 !.8.        z.F.              ",
"      i { H                   dX^.2.      { q.              ",
"      O X                     fXrXG.i p 8 B E Y             ",
"    z.{                       ^.z.d.( m K J z.M.C.          ",
"    P ~                       d.>.d.d.q.7.7.z.z.z.Y.        ",
"    @ $                       z.>.8.2.%.d.d.q.q.{ >.        ",
"    q.d.                    c z #.h.q.. ^ d.>.1 >.m         ",
"      r             >.b 5 d.b b ^ +.+.>.d.P.yXz.+.k 9       ",
"      & {       q.5 d.a g z.9 # m q.>.>.d.H.H.z.z.sXuX      ",
"        z.9 i O { 7 d.g A d.O.(.q.d.q.d.C I C j o.).        ",
"          = R o { e d.g A z.q./ tX/ / < > : [.XX}.oX        ",
"          q.z.6 Q x #.{ >.q.q.>.- _.`.* .X X}.'.#X#X        ",
"          d.q.M.M.d.z.d.q.d.q.d.[ ; W $X+X].{.oX,           ",
"        K Y d.d.d.q.d.d.z.( q.d.q.m ! aXpXz.z.[ H g         ",
"  E.z.q.q.>.h.>.d.z.H.H.z.z.K d.M.z.5 >.      T.C.[ >.z.>.W.",
"  q.z.S z ^ g 7.d.q.M.M.H.z.iXtXQ.M.[ q.b         Y.d.C.    ",
"      0 r F 2 Y.Y.C.q.Y.            z.d.d.d.d.z.            ",
"                                        z.z.>.              ",
"                                                            ",
"                                                            ",
"                                                            ",
"                  wX<X6XeXeXeX8XwX&X6X                      ",
"            &XwX&X&XwX&X&X1X6X1X;X&X6X&X6X                  ",
"                                                            ",
"                                                            "
};
