/* XPM */
static char *_bf0155e73ac4dc982f8be3054070480Vrm3UaOrIKlfxwoM[] = {
/* columns rows colors chars-per-pixel */
"100 100 32 1 ",
"  c #343336",
". c #36353A",
"X c #38373C",
"o c #3A393E",
"O c #3E3D42",
"+ c #403F44",
"@ c #424146",
"# c #454449",
"$ c #48474C",
"% c #4A494E",
"& c #4D4C51",
"* c #504F54",
"= c #525156",
"- c #555459",
"; c #58575C",
": c #5A595E",
"> c #5D5C61",
", c #605F64",
"< c #626165",
"1 c #656469",
"2 c #68676C",
"3 c #6A696E",
"4 c #6E6D71",
"5 c #7E7D81",
"6 c #807F84",
"7 c #86858A",
"8 c #88878C",
"9 c #8C8B90",
"0 c #939296",
"q c #A09FA4",
"w c #A5A4A9",
"e c #AAA9AE",
/* pixels */
"&**=,1;=&$$%@OXOO#%&OOOO$&#OOOOOOO#*>;;>==>;;%->*##OOOO;1&O$@OOOO&% +OOO%%&#@=%&o o@OO@O O+@OOOO O+@",
"@##%:>;-;=&%#@OOOOOOOOOO$$#OOOOOOO#*;$O##%=*&#%-%#OOOOO%>%#%*#OO&:-%+OOO#%%#+###++O@@%&@Oo@@OOOo@@@@",
"@#+@=>::;:;&@#@OO#OO$#%OO$#OOOOOO OO=$OOO%&$##%%*#OOOO#%-%#%&OOO&::-#OOO+%###@++OO+@&=%+oo+%@OOOO@#@",
"##@@=::>;=&&@##OOOO#&*>OOO##OOOOOOOOO#O##&;;;&-*##OOOOO%=%$%-$%@%&&-&OOo+%%%=#@oO++@%-%++@@%#@OoO+##",
"@@+@=;:,>=&@O@@OO##$&*>*#O&&OOOOOOOOOO#$O%;==%*%##OOOOO#-&$%5*-%+O%%@OOO#%&::@@@OO+#=:&%%@@@##OOO+@@",
"@+O@#%;:;=%#@O#%OOOO&->>;>>>*OOOOOOOOOOOO$=#O#*&&OOOOOOO#@##@$-*@+%&OoOO#%:<:+O@O+#=-:==%@@@@@@++OO+",
"@@O@@#&=&##@#+#OOOOO%>>2>>>>>OOOOOOOOOOOO%&OOO$%%OOO OOOOOOOO%%%%%&=ooO++&::%oO#@@%:::&-&@+OO+#%#@OO",
"OO+@#%;####@OOOOOOO$%>>11>>-*#OOOOOOOOOOOOOOOO#$%OOO OOOOOOOO%%-<-%%@oOOO&=-@O#%@+%=:=&>&@OoO@%@%#@o",
"#OOO#&>>>=#@OO@#O-*>*>>>>>-O OOOOOOOOO OO#O#OOOOOO OOOOO@#OOO#&-<%@@OooOo#=>%@@%@O%-<+o%O@@@+@%%&#+O",
"OOO+#&:;-&###O@OO%=%%%-&&>>OOOOO OOOO OO**#O#%$OOOOOOOOO$$$OOO#&=#@#+oo@@@&:#@+#@@#=-#oOOO@@@@#%@@@O",
"@+OXO#&&###%#@#OOO$$O#$$>>-#OOOO OOO OOO=-$O*;*OOOO OOOO#$@OO#OO@@%#OoO@+@%=#@+##@#@@@+O++@%@@@@O@@O",
"@+OoXO#%@###@@@OOO%&O#%>>>=$%OOOOOOOOOOOO***>>=OO O OOOO@@O@#@OO O@@OoO@+o#@%#@@@#@@O@%#+@@@++ooO@@+",
"OOOXOO@&#@#$###OO#%=##$&>>>>>$OOOO OO OOO$*->>-OOO OOOOOOOOO@%*#o@OOOo+o +##=%#+@#&&+%%%@%@+++ooO@+o",
"OOOOOXOO+O#&&&#+OOO%#%*>>>1>-%OOOOOOOO OO#*=;-%# OOOOOOOOOOO@%*#OOo @Ooooo%==##@@&:=@@%#@@+++ooOOOOo",
"OOOOoXXOOO#-=%O+OOOOO%$>>><>=$OOOOO    OOOO#**%$OOO OOOOOOOOOO$OOoO OOo  @=:=#%#%=>=%%=@+@++Oo++@@@@",
"OO##OXOOO#%:*#OOOOOOOOO*>><>OOOOOOOOO  OOOOOO#O$OOOOOOO O OOOO#O@O  o ++@%=-&#%##=:=--&%@+++@O+@@##&",
"OOOOOXOOOO&>=#OOOOOOOOO%=>>>*OOOOO##oO.Ooooo..O#OOOOOO.OO.OOO$@O @@@o oo@#&=+%%%==::::%%@o+@@o+#%#%#",
"oO#OOOXXO#&>#OOOOOOOOO#&=>>>>%##@#$*$O..oOOoOOOOOOOO...OOOO#O$@Oo@#%#@oo@%%#@%%&::=:=%@%@+o+@####%%%",
"O####+OOO@$&#OO#OO.OOO$&%=>==#*>&&*;$O..OO@#oO.oOOO ....OO@#O@####&&=%@@#:%O#%&=<:=:%Oo+o+o++#%&&%%&",
"#&*#&$#OOOO#O#*=#OOXO#*>#+#*-OO&%&&&@O.Oo#O@oO.OOO .OOOO.OOOOO@5:&=&&=#@&:&@%&&:<:==#oo++  +#==:>:=%",
">=&#&&##&#$&&=-$OO.OO&>=OO#%=$%#O@OO.O..OOOo#OO.O.O$%@OO..OOOO&5=&&%@%&#::==&==::::&@oO++ +%:=&=:===",
">>&#$#OO*--=&->&$OO.O#*$OOOO$%&%@#$#O.O...OoOoOOOO@%$@.OOOOOO@#O@@#=%@@&&===:>:><::&@O@@++@&=%%===:<",
"=;=&&#OO#&&&#&%#OOO.OO@OOOOOOOOOO$-5OOOoO.OOOOOOOOO#*$OO..O##$=-#@%>#o@&&:==><::<&%=%@+%+O+%#%===><1",
"OOOO#&OO.OO#%##OOOOOOOOOOOOOOOOO@*-$5$OoOOOOoOoOOOO$-*&;@OO#O%5-&=:&o  %#=><><:=:&&=@+@@oo+@@%::<<<>",
"#&&&=&#@OOOO####%@OOOOOOO#%#OOO#;5--5-=#OOOOOOOooO#&$%*-$#@@O#-&==@O @@&%-:<:<:=:=::OOOOOOO+O#=::>=#",
"&==&>==*###@O####OOOOOOOO##O%OOO@O*=#--#@@@O#O#OOO#%=&$#&##$#--$%#@+o@#&%=::::=%&=:&OOOO+@O+O@%###@#",
"=%&*>>->&$##O@@O@OOOOOO@&**%%#OOo$&*$5-#@OO@#####%&$$$OO@#$***#@@@++@+@%@+%=&=#O+&:&@@oo+++OO@#@OO+#",
"#O#&-&&&&#O@@OOO#OOOOO%>>>>>%OOOoO$=&&#O#@O@$=-=--%OOo.OO@%-;*##++O@@+oOOOO@@%#O %=%@@ OO+OOO@#@+OO#",
"O&&=;#####O$##OO%%O####>>>>OOOOOXo+$&OO##@O@#5=55*#O....O@$-5-*&o+O@ O +@@@@@#@ oO@OoOoO+OOOO@@@O@+O",
"O##&*#OOOOOOO&##>*#$%$#*>>>OOO%O+###=OO##OOO#**-#*#.O.OOO@&;$;5*##@@O+oo%%#%@@@OOO@O ooOOO+OO@@+OO+@",
"OOOO&##O#@OOO&&&=OO#*%#O>>=#O#OOOO#O#O###@OO##&&=-$OO .OO#&;&5*-=%#%+oo@%%%#O@##%@O@OOoOO+@@@@@+OoO@",
"O#@XOO&&>&#OOO&&O.O#>>=##>>%O#OOOoOOoOOoO##$$##@$OO..OOo#%%-;;*$=%#=OoO%=%%@o&-:=%#@%OoOO+%=#@@+Oo#O",
"oOOoO#=*--%+oO#%++#*-,,;=>>$.o##OoOOooOOo@&-$%$...X..$@+oO@-55&$@#%=@+OO@#@@@#=:=#%%%@ooO@%@+@++O@##",
"OOo+#*-*-&#oOoo+#$$&**;,-,;*#+ooO+#OOOOoOXO@%%$X..OOO$+OOO@-%&-$@@@#+OOO@##@+@%-&@+@@@ooO+@+OO+@##$#",
"#oo++%-*-%++OXo@-*$+##%,*;>;-#oX#$##oO+#+oXO$&*@++OOO++O@$$&&%#@@+@@O+O@#%&=@+#-%+o@O+ooO+++OOO@&&#o",
"#OoOo#*%****#OO*-&##%&%-#&%->%oo$&#oooO#+OX+@&-$$#OX.o+O$&%%-&#++@#&%%@O#%=:@+%-%oo+OOooO%&#O O+=#@O",
"$###O@#@#*;-*OO#$#%*-=-*##++&%OO#-*#ooOoOOO%;;%++OX.....O+@&-&@OOoO%@%@o@&:>@O#&&@OOOOoo@=<=@+@ OO@@",
"&=&#+O+O$->>=+Oo#*&##$&*&%#O%#+XO**$OOOo+OO+&%++oOOXO....oO#&$#$@oO@%@@@%=<<=#%&%++OoOoo@::%@OOOO###",
"####OoO#*-;>*%#+#&#OOO+@O@#O#+Oo#*%#+OOO@+OO$@$@@+OOOO...++$&O&-=%+@==@%%-<1<:::%OoOOO o%:&++O+ @&;=",
"oXo#@+#*-;>,5>-*-;&oXoOooO##++++--&##o@O@O+@+@$%O+OO+OX..OO@55-&=%+O=::==-<22<::@ooOoO oO=%++@#@@=&#",
"#@OOO#$&&*>5;;--$-*#OOOoXo#$##O#-$&$%@#@+OOXXO$%##X.OOoX.XXOO#&&@@@Oo@@@%;><4>;-@ooOoooooo@@%#@ XO#&",
"&#OOoO@o#&-,5>--#%-*$$%+Xo##%%#%-5-%#++O+#+OX+@$&#OO#OooXXXO@-%5=#O O%@@#%&=3>%@OOO@++O+o+@@##&@O@#@",
"-$+ooOOO$*>,;;*%$&-;;;;&o@**----*--$#@#@@@+OX+@@&@#$&OOOXXXOO&;-&@O@%&@@#%&;1:@oooO++oOOoo+@@%&&#&=&",
"=$+OoO+###-,>*%*$%->,,,$#$->,,--#$##@$#@@+OXX+@$$#-;-$@OXXXX&5-@@@@%&&O@&:>>:&@O oo+@+o o+ O:&@##&-,",
"$&#OOO@OOO%;-%#$*&-,>,,$-##%>,,-#@#@+@+@+OOOX+@%&=;>&=#OXo@#5-;&%@@@%@ @%-<<-%@@OOOOOooOooO#<#+@##&;",
"$$#O@OOooOOO#*---$&>;;>#*####--#O@##OOO+XoOOOO+#-;5;=-$#OoO&=55-@@#@@@+%=>>>::&#OoOOoooo  O:&O OO#$-",
"$$OXOoOOooOoO*->;**-*%-$#####*>+OO$$@+@@ooXXoOO$5-$&$=$$&#@@;;.oOo+OO+O@=<<:-,=%OoOOoOOoo @&OO  @@$$",
"O$#o#@#OOo+O#&=--;-#@#&###%%+#%%=-*%-*=-$OOOO@$%##%&5;&$5;=-*++@@O  OOoo&><>;;&%+OO++oOoo#::OO@@O@#&",
"X##o+###OO+#%&$#+%-#+$*&##--&#%**--*->>>;#O+o$#-&#$&*;$-;;>5*&&&#OoooOO#&>1>-%@@Ooo...oOoX$;O@#&#@O#",
"+##OO@#%#OOO#&$O+#&*$&&&##%=*$***-%*-;>>-#X...o%-***;;#*;-->-&$$#OO@O#@#-,1>&OOO+OO..Xoooo$;=*--#@oo",
"#@@OO#$*%###@##o+#&-***&###$#+%*-**%---*&#oO++o+&&**&-#*-%&*%#$*@OOOO===>1>;*#O#@@@O.ooo.+=;;-=$#OOo",
"##OOO##$-*%$OOOO#+&-*-*&##$@OO+*-=#+#%&%++#*-%@#O@&-5;$--#$&#+@-#OOo#>,>>;--=#%=*$##OoOooO=;;=#@O@Oo",
"#@OOO+#$>&##@O@++o#*=&&$*$%%##+%=&#oO#&-+##@@%*$.+$%5*++$#O##oO&#Ooo#->;-===-####**%&+o++o+##-#OOO@@",
"#@#OOO+@=$#%#OOO#OO#$##$&&&&#@%*-=&%*-&*+@#**%*5XO++;;#O+@@oOO@$@ooo@$;-&&==;$@@#%=-%+OoOoooOO@@O@Oo",
"O+#OOOO+###%###@$#++$+#$#&&%$-,5;=-=-###$$&**#&,%@++%%#OO+@@XO@+OOOO=$&&&->-;-&$%##@O#+oo#Ooo@@#@OOX",
"XO+#OO+$*$$#O####OO#+#####%$;,>;;--=$#@O-#%$*$&%$#$$#+#OoO@@##+..oo+;@o.#-151>-$#@Oooo#%--%Oo@O#@@O#",
"$##&%#+$-;-$+$-;$+O#O+#OO###=>;;;=$##%+.#o+#$*&..+@O#@#@+@#%>>&OXOXO*#@O@*;>2;=%=%OOOoOO->=@OO@@@OO@",
"-**-*$++*>;&#$--#O++OO+O++#O%>;**#++##++oo+#%--oo##o@#@@@+@&>;;&@OXO#OoXO$=&;=-=--#oOoo+=;=OOOO@OOOO",
"->>-&##+-;;-#@&#O#++OOO+#+O+%>-#+OO+O++#o++#**&oO+@o@@@O+@@*--5$@oooOoOOo+@+#%**%*#.oOO@#--#oXOOXXoO",
"=>,-##$#;>>;$O$#OOOOOOO#####$--#OoO++O#&+#@#&#OooooO*#O@+@#*>5>*OoOoO+##OOoOo###O@O.oOOo@&--OXOXXXO#",
"*>,-$=-$-*&$&$#+oOOOOOoo####==&$+XO#+%$*$*#+O+O#oXooOO@OOX@=5;;-@O@+#=##++ooOo.#%#@oOOXo@###.OOo#=;=",
"$--&&-=#&-*$##++O+#OOoOOO+#O$--=Oooooo#%*-%$$@O#o..oXOOOXO#*---*$o+*-@o@OoXXO+@##OOXOOoO%-;-@@@O#%&#",
"###++##+#*-&###+#OOOoOO####O#=>%Oooo.o#+O@$$+Oo+oO@@$$+o@O$$-;;$@O@*&#@$*$@O+oO@@ooO#@@*>>;%#O@@O#%@",
"#&*#OOoo++*;$++###+OoO++##$##$&#+oo+o.oooooOXXO+@#+$;*#O@#$$#;&@.O@O#&*>--%@+oO#@@oO@@*;>>;#OO##$&-&",
"%>1;##O+O+#&%@+o#@O+OO+@+@#%&&#@+ooOOOOO#OOXoOoo+##&--#@@@#Oo$#@o+#@O@&;-=#####%$#+oO+@#%&*$oOO+X#=#",
"#*--##++++++++@o++OOOO+##OO@#&OXoOOOOOOOOOX.XXoo#%$&*%#+@#@OO@$#oO#Oo#=>-%$-=&%=*%$o+O####&$@$&##&#X",
"@###$#O++++++++o+++##++@#@OoO#Oo+OOOOOOXOXXXXXOO#%%&&&&#@@Oo@O##oO@O.#;>*#%>>$##*=%O++$*&&==&--*&&$.",
"+#+@$#++o@####+oOoo#-#O@=$@oo@@+#OoXOX.XOXXoOOO$&&&&;-&Oo..ooO@+OOOo.#>1-->,,&#o#=#O++--%&--==&#=;;@",
"@++O####O@#####o@O@%-##=##OO@+O@-#O+#$##@%&@oO##-**--=#XOOoOOo$+@OooO$>1>,,>>;%o@@Oo++#@$;>=@@@O$>&o",
"*$#+#++#O@*-*#++Oo##%##-##OoOOO#;&OoO$**#=,;#OoXO+$*=$OX@#@oOO&#&$OO-;>;>>*##$%-%+o+oXo#%%==++OO@@oX",
"**%##+O+O@$--$#OoO+@@@##$%#OO+#*-*#OO#*;$=>*OOO..@%&&-*XO@+OoO=$-%+O-;$$--=%%%=--#O+##+@@@$$OO+#@O..",
"#%%+@#+O+##=>=##O+Oo@+@=-&@OO+&&&*$+##&:$--&o++Xo###%,-oOOOOo@-*-$Oo-%#@#=,,;-**-%#%1-%#o@#@$##&&#OO",
"%**+###@+$*-,-%#@@O#@@#>$$OO$#&$@+O+-=;-$**&OOOOO###$>$OOOXXX+&-&oX+%%###%---*&%$##&1,;%@#@o##&>-$@o",
"&%%++#+@+%--,,-$#@@@O#&>%$++#O##+XO$-*-#&**&+OOOO@$#$-$XoOOoo#$-&@O@####@+##@@$-%#$-,1>%##OX@#==$#@o",
"*&#@+O+O+%>->,>%@@OOO@=>&$#OOO+&+XO#%$+X#$&*$+OoX#**##+XXOOoO#$*-&#@+@##ooO+O+&>---,1,;-=*@XO+#%#@OO",
"**%#++oo+#>;->-*#@@OoO*>%#@OoXO#oO@+O#o.O$*&&++OO$*%#OXXOOOOo#&&=&#++#@+OOO@@#>,-;>;5>;->>*OO@@#@OXX",
"-*=#OO++++*>*--o%#@Oo@=,%+OOOoOOO$-%+&O.O**#OOO$$--#+o.XOO+O+$-5,;*#%$##o+%-;11-->,,>&$#O@#@oO@*&$#.",
";--*#+++o+$----#%#@OO&;>&+O+OO++@#&$##+OO$&#OO+*;-&##+OXOXO+$$&;-##----=@#-,>,>-%*-;>>=$#OO#OO$--&#@",
";>;=#@+@oo@*-**%%##Oo&>>&+O+OO+@&##@O++++$$+.o%;,-$##OoXXOO+######$;---&@#->,,>-%=--;>%##@+@@@#-;=$$",
">,;&#@O++O@*>*&#%#@OO%>&%@OOOO+@@+OOO##+#$#X.$;>1>&++OOXXOoX++#$###-=##@##=>,1>-;--%==@O@O+@O@#*&&#=",
"1,-#@OOO@#$&-*&-&$@@#%*##OOOOOO@OOoO#$@OOOOo#;11,,-OOOOO.XXoO##&#+#=&@@#@#==->>->,-#@#o++++oo#**&##-",
">-*#OoOO@##&*&&--%+@+#=&Oooo@O@OOOO@*&OOoOOo->1>,1-O%#$#.o#%&=&--**-&$&*#%=&#&*;,1,%@++@+Oo++#%%&##=",
"&&$@OO@O@@#&=&#&-&@@#@&-%Ooo#O@OOoO#%$OOXOOo*;>->:-##@%OX+%*:,,*;-*&$=--&*=#O@%-->-$#@+Oo+#####$$$&-",
"##OoOXOOOO#=-&@#%#@@##---%#oOO@OOOooOO+#O##o#*$#*>;$@o+oo@$&;11=,-&@@---%&&#$#*$$$$-++Ooo#$%##@#@#-;",
"@@OXXOOXO@#&--&#&##@###-&-#OooOOOOoXo@&&O#%oO+@#=&#OOX@%$OO$->,-1,-&@==&%&*-1-*###$-$#@O#&#OO@OooO$-",
"#OO@@OOOo@#$#*$#%&$#####%-%@#O#=%@OO#*-%O%*@+##@$O#%&+&&$OOO$-:-2>-%O#$#%*=>,>-#+o@%+O@#=-$+oooooO&,",
"@@@#@O@@O@@@o#@*&&%#%$###--#%%%&%#+@$%&#$--##&%##oO*$#+#%##+#%&>2,;&o@@##%*;--*$OOOOX+%--%##Oooooo#>",
"#OOO@O@@@O@@O@#*&=&&$$*+%;-&--&-=-*=&&&#$**+o*-%OO#-###O+OO$*-->,,>-@###%&*-*&#@OOooO#$*=$+O+oooOO@&",
"@OOOO#@@@O@@OO+@+$&##&;%&>>-&-*;>-=->>>-#OOOO%-&O#%=O$$X+##$%->,,11>*###%%%%*$@@@@++#$@+##OOOOoXoOO#",
"##@oo#@#@O@@+O+@O#&&&->-*>;-*-&->-&=->>-%O+#&%&#%$#O&&%O$$#O@#*:;,1,;&#$&#%#$$@@@##+@$#@#@OooOOoooOO",
"#@OOOOO#+OOO@O@$+#*-*>>-&>;&--&*-&&==>;&#o+$&&&#%#oX;%$O$+OooO#&-,11>=#$%##O@#@@@&%#+%&*=&@+@@oOoooo",
"@@O##@O@@@@O$#$-&%--->1-*;-#&**-=##&=>&o.o#&-->=%+oo,-#o#Oooo#+o$;>>,*#@#@++O##@+$**@%=--#@#&$#@OOoO",
"#@#&585&085573505,583575-51#$#@#%#*>--#oO#-1>->-*#++**&XoO+OO#+XoO+&-$#####oo##@+#&%O#->$OO#$-&$-#oo",
"@@#-557103>55,36q59516w1185#@#@*&*%&##&#%#->1----*%##+#OO$$+#OOoooO=,>%$#@+o+##O#$&##&;;&#@OO&*&*#oO",
"@O@-7885q5;563,8q58915e35q7$@$@@@#@OO$-*&#=:>==>=#++O#+##%$##OoOXo$-;=###@O+@#@@#**@*=-;-&$#O#&&$@O@",
"@O#-66550,&&51-5e53055q,709-+$@OoOOOO$>1-=::-&&&@OOoO##&%&#$%OoOoo$-,*@@#++++O+##&&#=&->;--&#####OOO",
"%@O%1,5563155>1595551>6%=11#OOO@ooO@#*>>;-;;-%%&+OOoXoo#$#@#$OoO.o@-=@o+@++O+++@#&=#&&-;=$*$@@@@+OO@",
"$Oo#->1>,---##-1>-%&#%-o+%%@@OO@OOO#&;15>--&&#%%+@OooX.XoOooOoooXo@*=###@+++OooO$%*#$*&#@@@@OOOoO@+@",
"@@#&-->;*%##O@&;###@@#OoO##@@OOO+O#&*-;1;=*$&#--&%#OOOX...ooOOoXOOO#*%&%@+++OOoO@####&#+OOO+@@+OO@@@",
"@#*;;>>,&@@OO@%*#OOO#@O+#%#OOO###@@%#oO#>*&#=&;>;&OOO@....oXoOoX+oXO#@OoooXooooO#@@@+OO+OoO+@@@OoO@O"
};
