/* XPM */
static char *result[] = {
/* columns rows colors chars-per-pixel */
"50 50 185 2 ",
"   c #A0571F",
".  c #A15623",
"X  c #A35B25",
"o  c #AB552F",
"O  c #A55D2A",
"+  c #A85F2B",
"@  c #A05F35",
"#  c #AB5D32",
"$  c #AF5D39",
"%  c #B15437",
"&  c #B6563F",
"*  c #B8573E",
"=  c #B55B3D",
"-  c #B8593E",
";  c #9D613C",
":  c #A96127",
">  c #A6612C",
",  c #A9632D",
"<  c #AC682E",
"1  c #B1702E",
"2  c #A66331",
"3  c #AA6532",
"4  c #AD6A34",
"5  c #AD6D3B",
"6  c #B16E35",
"7  c #B7643E",
"8  c #B36D3C",
"9  c #AF713D",
"0  c #B27136",
"q  c #B77937",
"w  c #BB7C35",
"e  c #B4743C",
"r  c #B8713F",
"t  c #B6793E",
"y  c #B97C3E",
"u  c #B85741",
"i  c #B75C42",
"p  c #BA5B42",
"a  c #936247",
"s  c #9E6846",
"d  c #97664B",
"f  c #98674B",
"g  c #9C6A4C",
"h  c #9D6D52",
"j  c #9F7055",
"k  c #A36B44",
"l  c #A96E45",
"z  c #AB664D",
"x  c #A16D4C",
"c  c #B76341",
"v  c #BA6244",
"b  c #B66B42",
"n  c #B96B44",
"m  c #B4634A",
"M  c #BC644A",
"N  c #BD6B4B",
"B  c #A77044",
"V  c #AC7143",
"C  c #A5714F",
"Z  c #AB754B",
"A  c #AD784D",
"S  c #B37542",
"D  c #B97344",
"F  c #B67A42",
"G  c #B97D43",
"H  c #B47649",
"J  c #BB734C",
"K  c #B57C4B",
"L  c #BA7D4B",
"P  c #BE6C51",
"I  c #A37254",
"U  c #AA7750",
"Y  c #AC7D57",
"T  c #A27558",
"R  c #A6785B",
"E  c #AB7D5C",
"W  c #BE7452",
"Q  c #B57F53",
"!  c #BD7C52",
"~  c #BE7359",
"^  c #AA7F61",
"/  c #C17343",
"(  c #C57C47",
")  c #C47B4A",
"_  c #C06F54",
"`  c #C07556",
"'  c #C17B55",
"]  c #C17659",
"[  c #C37B5C",
"{  c #C37D62",
"}  c #BD823D",
"|  c #C38637",
" . c #C68B3C",
".. c #C98D3F",
"X. c #CD973F",
"o. c #BC8245",
"O. c #B6804F",
"+. c #BC834B",
"@. c #BF884F",
"#. c #B78353",
"$. c #BD8552",
"%. c #BE8953",
"&. c #B0815C",
"*. c #BC8658",
"=. c #BE8A5A",
"-. c #BF9057",
";. c #AD8262",
":. c #B28767",
">. c #B48860",
",. c #BF8D62",
"<. c #BB8C6B",
"1. c #BF9066",
"2. c #BD926C",
"3. c #B99377",
"4. c #C18644",
"5. c #C48C44",
"6. c #C98E43",
"7. c #C7844C",
"8. c #C38C4C",
"9. c #CB8F48",
"0. c #C79045",
"q. c #CA9444",
"w. c #CE9A44",
"e. c #C7924C",
"r. c #CA954B",
"t. c #CD9A4C",
"y. c #D09C46",
"u. c #D09D4B",
"i. c #C08455",
"p. c #C18B54",
"a. c #CB8F52",
"s. c #C3835C",
"d. c #C28E5B",
"f. c #C69252",
"g. c #CA9651",
"h. c #CC9A53",
"j. c #C4925D",
"k. c #C89658",
"l. c #CC9B5B",
"z. c #D09F54",
"x. c #D09E59",
"c. c #CEA15B",
"v. c #D1A154",
"b. c #D2A35B",
"n. c #C38D63",
"m. c #C98D6A",
"M. c #C59363",
"N. c #C99561",
"B. c #C79867",
"V. c #C99B64",
"C. c #C4966B",
"Z. c #C9946C",
"A. c #C7996B",
"S. c #CA9C6C",
"D. c #C49270",
"F. c #CA9570",
"G. c #C49A74",
"H. c #CA9D72",
"J. c #CE9A78",
"K. c #D09F76",
"L. c #D09E7D",
"P. c #CEA264",
"I. c #CEA36D",
"U. c #D3A662",
"Y. c #D3A769",
"T. c #D4AA6C",
"R. c #CCA274",
"E. c #CDA57B",
"W. c #CFA87B",
"Q. c #D1A672",
"!. c #D1A974",
"~. c #D2AB7C",
"^. c #D8AF7A",
"/. c #D6B17D",
"(. c #C9A781",
"). c #CCA883",
"_. c #D1A482",
"`. c #D1AB83",
"'. c #D2AF8A",
"]. c #D4B185",
"[. c #D9B387",
"{. c #D5B38B",
"}. c #D9B68D",
"|. c #D8B891",
" X c #E0C49B",
/* pixels */
"0 G _.u p p J.3 > > A.G t t %.5 . . H b.y.X.z.d.y q i.{ M u u W >   3 ).+.e +.{.h a h (.w.X.w.T.} t ",
"0 y _.p p p J., > O A.+.t t $.5 . . F b.y.X.x.j.y r p.{ p p u W > . 2 `.L q +.{.h a h ).w.w.w.T.o.q ",
"0 G L.u p p H., O > A.+.t G =.9 O X S c.w.q.x.d.r t p.] i u & H : . 3 ).@.y +.{.T d h (.w.w.w.T.o.t ",
"0 G J.& p p G.+ X O G.$.G G j.9 O X t c.w.X.x.p.y t p.] p u u b > . 3 ).@.G @.'.T g j (.u.w.w.Y.+.o.",
"6 t m.% _ / Z.< 4 , B.$.+.G -.9 4 > 9 e.q.0.a.i.F G $.` v v i S , 3 4 H.@.=.p.~.Y R I R.r.t.X.P.O.F ",
"8 4 H o [ ( l.y #.9 =.+.%.G @.9 V 2 4 t o.7.) _ J +.+./ J W n S 4 K 8 d.@.I.e.P.%.2.U =.@.l.} -.} } ",
"5 X + . K.9.t.6.R.F K +.j.G } t O.9 > , F ' / p ` i.F F i.s.J y q d.t K +.`.t.t.e.!.F o.} V.} o.t F ",
"5 X O . Q.9.w.q.R.G G G -.+.t t +.9 X X S [ p u ` p.F y i.d.F t e C.t F +.}.r.w.t.~.F V } V.t t 9 o.",
"3 . . X !.w.w.w.E.G F G j.@.e t @.S O . S [ v u ` i.G F %.p.F e e B.S t +.|.t.w.t./.S t t M.t t t o.",
"4 X O X Q.w.w.r.E.G G G j.@.t t @.t O O b [ v u P +.t G =.@.t e e M.e G +.{.t.t.r.~.t S 0 d.0 e q O.",
"5 , H , j.5.l.5.M.o.p.5.f.e.o.o.G S 5 5 S ' N v b S S +.@.+.t t 4 L 5 =.L I.8.b.q.V.G +.< F < F t o.",
"0 e M.4 o.o.P.o.+.o.V.q.q.q.0.o.F F G G y D L n # 3 S %.G o.y S : 4 4 A.G %.+.!.o.@.S M.O 4 O K t t ",
"e S B.r G t I.o.o.o.I.t.w...e.o.t t @.+.y F L S 3 , S %.G G y S O , 3 E.G +.o.W.o.o.S A.X + X ! t t ",
"S t Z.r G t B.t o.O.R.t.w. .0.F r t 8.8.} t +.S , , F 8.o.G t S O 3 3 H.o.+.G R.o.o.F M.X : O +.t t ",
"D r Z.r +.r M.e +.+.!.h.q.| 5.} e G p.8.o.t o.S 3 4 y 8.o.o.t V X 3 4 H.G +.S A.F o.} 1.  < X #.G t ",
"n b [ n =.5 L 5 =.+.B.e.5.w q 5 e 5.e.e.8.o.G e r y 4.e.8.K 8 4 O S 5 -.o.M.9 $.9 =.} =.< S < G t o.",
"n v P v C.2 5 3 I.+.%.o.o.4 < > e f.q.r.g.@.F t +.8.0.q.h.L 3 3 O #.e +.G W.5 5 5 B.G +.4 $.6 G t +.",
"M u M i D.> , 2 R.+.o.G o.< O > 9 h.w.q.h.%.t t %.h.q.t.h.K > > > =.F G K ].4 , 4 I.G G r j.e r e +.",
"c = P m <.2 5 3 G.+.o.} @.4 , , t g.r.0.e.+.e G @.r.r.r.8.S O 3 < $.G @.o.W.5 5 6 S.} +.8 s.r D 0 G ",
"= $ ~ m :.@ V 4 A.o.+.t @.5 3 3 e e.r. .o.G S o.@.e.r.h.8.5 . 5 3 #.G p.G R.5 F q V. .i.8 ' 8 D < S ",
"# $ ~ z &.; #.e -.O.@.t O.5 e 9 e 8.e.o.t 0 e @.+.8.e.8.y , X 8 5 o.G A.L M.e =.| l.6.j.7 _ 7 L , 5 ",
"O # D.j j d 2.t +.o.=.e G e +.G t o.8.G 4 , S $.G o.p.+.< + X S 9 F G E.+.8.G R.9.r.9.I.7 M - ! > > ",
". @ 3.h g g E.F t o.M.t e t =.@.t y %.H O X H %.y G p.H O o X F e t +.`.+.G @.].t.w.t.!.- - * ` O . ",
"3 # 2.C j j R.o.@.o.V.o.t t @.+.G o.@.S 4 < G 8.o.+.p.S , 3 3 H r G G H.+.%.+.R.r.t.q.S.- _ v ' , , ",
"8 3 ,.C :.Y A.G j.@.P.e.+.t +.o.t o.+.F 0 } o.e.8.8.+.S 5 D 8 H b #.F M.O.j.+.B.e.v.0.M.7 ` n ' 5 e ",
"H 0 %.A 2.&.M.G P.e.c.e.e.t O.o.o.o.O.S t @.o.e.e.p.+.e S J c N c %.S ! G H.+.d.5.Y.o.p.7 s.D L e e ",
"F e +.V G.L %.G Q.r.v.r.e.} F G +.+.F t O.r. .q.h.p.G t L W v m c ! 5 5 9 E.O.@.@.Q.o.7.r n.D D e G ",
"G t F t R.F G G /.t.w.w.g.t t t @.%.} e %.v.w.q.x.p.G F %.` p u u W + X 2 {.G F o.W.G y r N.t F G +.",
"H F +.S A.e +.y !.r.r. .5.q e t @.+.y e o.e.0.q.h.%.G +.=.` v M c L 3 5 2 G.S +.o.R.G o.4 %.0 F S K ",
"B A =.e =.5 %.y I.e.l.} t 5 0 y +.O.o.e 9 } } g.8.+.$.d.d.J n ] n L 8 Q 3 *.e %.o.j.G %.< t < G B Z ",
"k U C.V K 3 M.t V.5.k.q 6 < 4 o.G o.+.e < 1 } f.@.o.p.M.d.L D s.b D S n.2 H 4 C.G %.G j.: 4 > F k x ",
"s I C.5 5 , B.t j.o.j.6 < : 4 G G G +.V , < F %.o.o.i.d.i.L D i.S F G A.3 5 4 A.G @.F M.: , : O.s g ",
"g C 2.> 3 > G.G +.o.M.3 > > 4 o.} V O.B > : S %.o.o.$.%.G +.S +.t F G E.3 3 3 R.G o.S A.: > X A s f ",
"I g 1., 9 2 A.G @.O.-.5 4 < 0 o.} } +.e 2 1 t f.o.@.$.! D $.D +.e L +.H.5 S 8 I.o.@.t M.> 4 > K k g ",
"&.B $.9 *.9 C.o.B.$.=.e K q w  .@.o.o.e V } } e.8.j.J N J B.L H 6 d.%.M.S ,.y U.5.j.t %.< K < S 5 U ",
"2.V G e G.F j.+.W.j.-.L M.5.| q.r.o.9 e @.e. .q.z.H.M v ` H.#.V 5 A.j.%.+.E.5.t.q.I.t G 0 1.t e 9 #.",
"=.9 o.S R.o.-.+.E.%.%.D j.5. .q.r.o.t t @.g.0.w.h.m.M v ~ M.H 5 3 M.=.@.o.`.q.t.q.Q.t F e M.e e 9 O.",
"o.9 o.o.R.F %.o.W.$.+.S p.6.....g.o.e t @.g.q.r.h.s.v M ~ ! 5 5 3 j.@.+.+.`.r.t.r.!.t F e M.r t e K ",
"9 9 @.o.I.o.%.O.R.@.+.S 7.7.6. .@.o.9 o.@.g.r.t.8.` v P ] K 3 5 3 =.+.%.+.~.r.v.r.I.y +.r n.8 S 8 t ",
"< 6 V.g.c.0.P.+.j.@.n.b n / ( y e 6 t o.o.@.f.l.G 7 J m.i.F e *.r +.@.I.+.M.8.T.8.k.G d.v ` 7 L < 4 ",
"  4 /.b.u.t.~.@.+.@.F.M p 7 _ 6 > : V %.G } f.A.3 O ! ).i.t F E.o.+.@.{.@.o.+.].o.o.G H.v M - [ : X ",
": 4 ].b.u.w.~.O.G @.F.M u p / 8 O X V -.t e =.1., O #.E.$.G o.R.o.G 8.|.7.G @.].o.y G H.p p u [ O X ",
": > W.v.u.w.!.G o.+.Z.M p p _ 8 > O V $.F t %.$., 3 L A.+.o.o.B.G +.8.}.@.o.+.`.o.G F F.u i - s.: X ",
"2 2 R.h.u.r.R.G +.+.n.N _ p / 8 < 2 V #.F F O.O.3 5 +.j.o.+.o.=.G +.@.[.p.+.@.~.+.G t C.- M - s.: O ",
"A ; 2.-.P.e.n.e j.@.M.] { ) ) 4.y l l A K @.O.G S %.8.f.f.M.j.j.o.j.k.^.l.R.%.A.+.j.9 ! $ ] n ! 4 5 ",
"2.j :.>.E.$.L 5 R.d.j.i.K.9.9.9.f.Y g g E d.G G %.I.g.h.P.W.S.j.@.Q.U.T.T.|.p.%.@.A., 4 , n.D D e O.",
"3.j R ;.).Q 5 3 `.j.d.p.~.h.w.t.c.;.g d ;.j.G G j.^.z.t.Y.~.A.j.+.^.U.U.T. X=.G +.(.> X O A.o.S t +.",
";.j j j E.l 3 2 ~.%.+.7.S.z.q.y.c.;.d d ^ j.G y p.T.t.u.U.I.j.O.L !.z.v.b. X@.F +.W.> X X C.t e t +.",
"j g f h 3.@ . O E.+.G o.j.h.w.y.c.;.d d &.-.e e j.b.y.t.b.j.o.t G Y.u.y.z. XG r o.`.O   . ,.e 0 e o.",
"j f f f R.@ . O E.O.t F j.t.w.y.c.;.d d ;.%.t t -.c.y.w.b.j.o.t F U.t.y.z. Xo.0 +.W.> . . =.e e e G "
};
