/* XPM */
static char *f0169c1e2bfd4c88df5e90a99b025e61j4a5XDzPFJpUefYQ[] = {
/* columns rows colors chars-per-pixel */
"30 30 151 2 ",
"   c #A25623",
".  c #A45B26",
"X  c #A45D2A",
"o  c #AB5B33",
"O  c #B35F3E",
"+  c #A86227",
"@  c #A6612C",
"#  c #A8622E",
"$  c #AC692F",
"%  c #A76331",
"&  c #AA6532",
"*  c #AD6A34",
"=  c #A56538",
"-  c #AC6739",
";  c #A7693E",
":  c #AD6C3A",
">  c #B06E36",
",  c #B3663F",
"<  c #B26D3C",
"1  c #B47436",
"2  c #B3743C",
"3  c #B67A3E",
"4  c #B87B3E",
"5  c #B75F43",
"6  c #BA5C43",
"7  c #97664A",
"8  c #9B694C",
"9  c #9D6D52",
"0  c #9F7055",
"q  c #A16C47",
"w  c #A56F4A",
"e  c #B76342",
"r  c #BA6344",
"t  c #B46C44",
"y  c #B96A44",
"u  c #BC6549",
"i  c #BC6A4B",
"p  c #AE7344",
"a  c #A7714A",
"s  c #AC774A",
"d  c #B37542",
"f  c #B97544",
"g  c #B67A43",
"h  c #B97D44",
"j  c #B47648",
"k  c #BC754B",
"l  c #B57B4B",
"z  c #BA7C4A",
"x  c #A47353",
"c  c #AA7357",
"v  c #A97955",
"b  c #A77A5F",
"n  c #AC7D5C",
"m  c #BE7253",
"M  c #BE7C53",
"N  c #B87D5F",
"B  c #C57F45",
"V  c #C2754A",
"C  c #C07353",
"Z  c #C17B57",
"A  c #C27A5B",
"S  c #C47D62",
"D  c #BD823F",
"F  c #C68A3D",
"G  c #BB8246",
"H  c #B6804E",
"J  c #BC834C",
"K  c #BF884C",
"L  c #BC8552",
"P  c #BF8954",
"I  c #B4845E",
"U  c #BE8A5A",
"Y  c #AC8261",
"T  c #B28566",
"R  c #BE8061",
"E  c #B98B63",
"W  c #B58969",
"Q  c #BB9271",
"!  c #C08344",
"~  c #C48C44",
"^  c #C88D41",
"/  c #C28C4C",
"(  c #C98A4C",
")  c #C79146",
"_  c #CB9545",
"`  c #CE9944",
"'  c #C7924E",
"]  c #C9944C",
"[  c #CD9A4B",
"{  c #D09D4B",
"}  c #C18657",
"|  c #C18C54",
" . c #C3865D",
".. c #C28A58",
"X. c #C38F58",
"o. c #C28D5B",
"O. c #C39052",
"+. c #C79453",
"@. c #C69354",
"#. c #CB9750",
"$. c #CC9355",
"%. c #CC9B53",
"&. c #C2915C",
"*. c #C4925D",
"=. c #C5935D",
"-. c #C8975B",
";. c #CB9B59",
":. c #CD9F59",
">. c #CC9C5A",
",. c #CC9C5D",
"<. c #D19F50",
"1. c #D09E59",
"2. c #CFA05B",
"3. c #D1A256",
"4. c #D1A35A",
"5. c #C58462",
"6. c #C38E64",
"7. c #C29262",
"8. c #C59463",
"9. c #C59566",
"0. c #C69965",
"q. c #C2966D",
"w. c #C9926C",
"e. c #C7996B",
"r. c #C99A69",
"t. c #C99B6A",
"y. c #C99D71",
"u. c #C19878",
"i. c #CDA063",
"p. c #CFA366",
"a. c #CEA16C",
"s. c #CCA16F",
"d. c #D1A561",
"f. c #D2A468",
"g. c #D5AA6A",
"h. c #D4AA6B",
"j. c #CCA274",
"k. c #CCA376",
"l. c #CEA476",
"z. c #D2A675",
"x. c #D1A873",
"c. c #D1A378",
"v. c #D2AD7E",
"b. c #CFA780",
"n. c #D2A382",
"m. c #D3AD85",
"M. c #D2AF8A",
"N. c #D4B184",
"B. c #D7B58E",
"V. c #DBBC94",
"C. c #E0C49A",
/* pixels */
"2 n.6 C # @ =.3 J & . +.F 4.G G S 6 6 % X y.1 j.9 9 :.` g.3 ",
"2 c.6 C # @ 7.3 L * . ' ` 4.G G A 6 5 X # y.h l.9 9 :.` g.3 ",
"2 w.6 C $ # 7.G P : X / _ $.h h C r , X % e.J a.v x >.` p.G ",
"* < C ( G g L | G 2 ; : B V k J k V V > f P l.:.U s / @.K G ",
"& X ..[ _ P h &.h g d . k u i L g ..g 2 J h B.` :.j 3 U D 3 ",
"% X o.` _ U h =.h h d . k 5 i z g P 4 2 J h B.[ 4.3 2 | 2 G ",
": z J / ~ J O.] ~ G g 2 f k e p J G 4 * : U 0.-.' 3 2 : g g ",
"2 e.g K h G i._ ) h 4 J g J - & | h 3 X & 9.J t.G g : X l g ",
"d w.h J 2 J p._ F 3 D K D J * * / G 2 . & 8.J 7.h 4 > X M g ",
"y A M < * P +.K 1 : / ] K h 4 G ( J : . d P e.g h g 2 d h h ",
"r u N # # &.G G @ # %._ +.3 J [ [ / # X l G N.& z h 2 L d h ",
"5 m I = * P G J & * ' ) J 3 J ] ] g X $ h L j.2 G D f M h 2 ",
"o N c a 2 H J G d 3 / G 1 d J / | & # : h 8.&.P ~ ~ k i z @ ",
"  u.9 b h h P 2 J J 4 l . d G G j . & 2 h y.h j.{ { V 6 A . ",
": E n T G K -.G J G h h > G / J d : y < z 6.=.9.#._ V i Z * ",
"d L E L h %.%./ G h G h J ~ ] P 2 k t e d g j.P O.G f A z d ",
"g h 9.g h 4.` ] 3 G L 2 +._ [ P 3 M 6 O e X N.h &.h 2 | 4 J ",
"p | L 3 g >.] G > h J 3 D F ' J P M i e < 2 E J J h 2 3 g p ",
"w q.d d 3 | / * & h h h $ D K J 7.L k f d L j U J h 2 # l q ",
"8 q.% p h G J + $ G 3 d X d G H U h h 2 h 6.% 6.h d 2 . l 8 ",
"v U d l h P L g 1 ! G 2 2 ! / } k } z 1 P o.L =./ 3 2 2 l a ",
"I h 7.J J 8.L 7.F _ G 3 / F #.5.r 6.j > U L b.[ [ 3 2 P 2 l ",
"d G 8.J J =.J P ^ ) J 3 / _ ' Z u Z q # P J m.[ 1.3 3 | 3 g ",
"* =.>.' G P M k B D 2 l ! ' / t 5.h d 2 J &.t.,.| g f m z : ",
"+ v.<.4.J / 5.6 u * X L 3 &.g : n.h ..G / l.J j.G h m 6 A . ",
"@ v.[ 3.h J 5.6 y * @ z 3 P : : t.G P h ! c.G y.G 3 m 6 A X ",
"p Q ;.@.4 J  .A V 3 ; s l J d J +.o.| G @.z.8.0.| > y i M * ",
"T Y k.l : 9.o.c.] ] Y 8 I h J p.[ x.e.J f.g.V.L U # #  .j h ",
"b 0 Q q # 7.J a.` [ Y 7 T h | 4.[ a.P J :.4.C.g &.# . | 2 h ",
"9 7 W X . *.h =.` { Y 7 I 4 J 3.` -.h h 3.{ C.3 U X   L 2 h "
};
